<?xml version="1.0" standalone="no"?>
<!DOCTYPE svg PUBLIC "-//W3C//DTD SVG 20010904//EN"
 "http://www.w3.org/TR/2001/REC-SVG-20010904/DTD/svg10.dtd">
<svg version="1.0" xmlns="http://www.w3.org/2000/svg"
 width="412.000000pt" height="412.000000pt" viewBox="0 0 412.000000 412.000000"
 preserveAspectRatio="xMidYMid meet">
<metadata>
Created by potrace 1.11, written by Peter Selinger 2001-2013
</metadata>
<g transform="translate(0.000000,412.000000) scale(0.100000,-0.100000)"
fill="#000000" stroke="none">
<path d="M543 3797 c17 -14 17 -15 -2 -20 -11 -3 -22 0 -25 7 -2 6 -5 2 -5 -8
-1 -11 -4 -16 -8 -13 -3 4 -14 0 -24 -9 -10 -9 -25 -14 -34 -11 -8 4 -15 2
-15 -2 0 -5 6 -12 13 -14 7 -3 4 -6 -6 -6 -10 -1 -16 -5 -13 -10 3 -5 -2 -15
-11 -22 -14 -12 -16 -12 -8 1 5 9 5 12 -1 7 -5 -5 -9 -14 -9 -20 -1 -7 -7 -11
-14 -9 -7 1 -10 -2 -6 -8 3 -6 10 -8 15 -5 5 3 5 -7 0 -23 -4 -16 -7 -43 -5
-60 1 -18 -1 -29 -6 -26 -5 3 -9 0 -9 -5 0 -6 3 -11 8 -11 4 0 7 -13 7 -30 1
-16 -3 -30 -8 -30 -5 0 -4 -7 3 -15 10 -12 10 -18 0 -30 -10 -12 -10 -15 1
-15 11 0 11 -2 -1 -10 -9 -6 -11 -10 -3 -10 7 0 10 -7 7 -15 -4 -8 -10 -13
-14 -10 -5 3 -12 1 -15 -5 -4 -6 -3 -10 2 -9 19 3 33 -2 33 -12 0 -5 -6 -7
-12 -3 -9 5 -9 2 1 -9 10 -13 10 -17 1 -17 -10 0 -10 -3 0 -15 10 -12 10 -18
0 -30 -10 -12 -10 -15 1 -15 11 0 11 -2 -1 -10 -9 -6 -11 -10 -3 -10 7 0 10
-7 7 -15 -4 -8 -10 -13 -14 -10 -5 3 -12 1 -15 -5 -4 -6 -3 -10 2 -9 19 3 33
-2 33 -12 0 -5 -5 -7 -12 -3 -7 5 -8 3 -3 -6 11 -18 13 -300 2 -300 -5 0 -5
-6 0 -12 10 -17 10 -228 0 -228 -5 0 -5 -6 0 -12 11 -18 11 -108 0 -108 -5 0
-4 -7 3 -15 10 -12 10 -18 0 -30 -10 -12 -10 -15 1 -15 11 0 11 -2 -1 -10 -9
-6 -11 -10 -3 -10 7 0 10 -7 7 -15 -4 -8 -10 -13 -14 -10 -5 3 -12 1 -15 -5
-4 -6 -3 -10 2 -9 19 3 33 -2 33 -12 0 -5 -6 -7 -12 -3 -9 5 -9 2 1 -9 10 -13
10 -17 1 -17 -10 0 -10 -3 0 -15 10 -12 10 -18 0 -30 -10 -12 -10 -15 1 -15
11 0 11 -2 -1 -10 -9 -6 -11 -10 -3 -10 7 0 10 -7 7 -15 -4 -8 -10 -13 -14
-10 -5 3 -12 1 -15 -5 -4 -6 -3 -10 2 -9 19 3 33 -2 33 -12 0 -5 -5 -7 -12 -3
-7 5 -8 3 -3 -6 11 -18 13 -140 2 -140 -6 0 -6 -5 0 -12 5 -7 8 -56 7 -108 -2
-118 -1 -114 -17 -104 -7 5 -4 1 6 -8 13 -13 15 -18 6 -18 -9 0 -10 -3 -4 -8
14 -9 14 -45 0 -54 -6 -5 -6 -8 3 -8 6 0 12 -4 12 -9 0 -5 -10 -7 -22 -5 -20
4 -21 3 -4 -4 17 -7 20 -20 20 -95 1 -48 -3 -87 -7 -87 -5 0 -4 -7 3 -15 10
-12 10 -18 0 -30 -10 -12 -10 -15 1 -15 11 0 11 -2 -1 -10 -9 -6 -11 -10 -3
-10 7 0 10 -7 7 -15 -4 -8 -10 -13 -14 -10 -5 3 -12 1 -15 -5 -4 -6 -3 -10 2
-9 19 3 33 -2 33 -12 0 -5 -6 -7 -12 -3 -9 5 -9 2 1 -9 10 -13 10 -17 1 -17
-10 0 -10 -3 0 -15 10 -12 10 -18 0 -30 -10 -12 -10 -15 1 -15 11 0 11 -2 -1
-10 -9 -6 -11 -10 -3 -10 7 0 10 -7 7 -15 -4 -8 -10 -13 -14 -10 -5 3 -12 1
-15 -5 -4 -6 -3 -10 2 -9 19 3 33 -2 33 -12 0 -5 -5 -7 -12 -3 -7 5 -8 3 -3
-6 11 -18 13 -300 2 -300 -5 0 -5 -6 0 -13 10 -16 10 -227 0 -227 -5 0 -5 -6
0 -12 11 -18 11 -108 0 -108 -5 0 -3 -8 4 -17 10 -11 10 -14 2 -9 -7 4 -13 2
-13 -3 0 -6 5 -11 10 -11 6 0 10 -5 10 -11 0 -5 -3 -8 -7 -6 -5 3 -9 -6 -10
-20 -1 -19 1 -22 8 -12 8 13 14 -14 12 -59 -1 -7 1 -11 4 -8 3 2 17 -10 33
-27 23 -26 26 -35 17 -47 -10 -13 -10 -13 5 -2 13 10 22 11 37 2 12 -6 21 -13
21 -16 0 -3 -5 -2 -12 2 -7 4 -8 3 -4 -5 6 -9 11 -9 21 -1 10 8 14 7 18 -2 4
-10 6 -9 6 1 1 11 5 10 17 -5 8 -10 13 -14 10 -8 -3 7 12 11 44 11 28 1 48 -3
45 -7 -3 -5 -1 -12 5 -15 6 -4 9 -1 8 7 -2 10 15 13 70 15 50 1 72 -2 72 -10
0 -7 4 -6 10 3 5 8 10 11 10 6 0 -5 7 -2 16 5 15 12 16 11 10 -11 -6 -21 -5
-22 4 -7 6 9 18 17 26 17 8 0 13 -4 9 -9 -3 -5 -1 -13 5 -16 6 -4 9 -1 8 7 -2
10 15 13 70 15 50 1 72 -2 72 -10 0 -7 4 -6 10 3 5 8 10 11 10 6 0 -5 7 -2 16
5 15 12 16 11 10 -11 -6 -21 -5 -22 4 -7 6 9 18 17 26 17 8 0 13 -4 9 -9 -3
-5 -1 -13 5 -16 6 -4 9 -1 8 7 -2 10 15 13 70 15 50 1 72 -2 72 -10 0 -7 4 -6
10 3 5 8 10 11 10 6 0 -5 7 -2 16 5 15 12 16 11 10 -11 -6 -21 -5 -22 4 -7 6
9 18 17 26 17 8 0 13 -4 9 -9 -3 -5 -1 -13 5 -16 6 -4 9 -1 8 7 -2 10 15 13
70 15 50 1 72 -2 72 -10 0 -7 4 -6 10 3 5 8 10 11 10 6 0 -5 7 -2 16 5 15 12
16 11 10 -11 -6 -21 -5 -22 4 -8 6 10 18 18 26 18 8 0 13 -4 9 -9 -3 -5 -1
-13 5 -16 6 -4 9 -1 8 7 -2 10 15 13 70 15 50 1 72 -2 72 -10 0 -7 4 -6 10 3
5 8 10 11 10 6 0 -5 7 -2 16 5 15 12 16 11 10 -11 -6 -21 -5 -22 4 -7 6 9 18
17 26 17 8 0 13 -4 9 -9 -3 -5 -1 -13 5 -16 6 -4 9 -1 8 7 -2 10 15 13 70 15
50 1 72 -2 72 -10 0 -7 4 -6 10 3 5 8 10 11 10 6 0 -5 7 -2 16 5 15 12 16 11
10 -11 -6 -21 -5 -22 4 -7 6 9 18 17 26 17 8 0 13 -4 9 -9 -3 -5 -1 -13 5 -16
6 -4 9 -1 8 7 -2 10 15 13 70 15 50 1 72 -2 72 -10 0 -7 4 -6 10 3 5 8 10 11
10 6 0 -5 7 -2 16 5 15 12 16 11 10 -11 -6 -21 -5 -22 4 -7 6 9 18 17 26 17 8
0 13 -4 9 -9 -3 -5 -1 -13 5 -16 6 -4 9 -1 8 7 -5 21 132 21 149 0 12 -15 12
-15 6 3 -6 18 -5 18 10 6 16 -12 17 -12 10 5 -5 15 -4 17 8 9 16 -12 270 -12
289 0 9 6 11 4 5 -5 -5 -9 0 -7 15 3 19 13 27 14 39 4 12 -10 13 -9 7 1 -6 9
3 25 27 47 19 18 33 36 30 38 -8 8 34 27 42 19 5 -4 5 -1 1 6 -4 7 -12 9 -18
6 -8 -5 -9 -1 -3 12 4 10 7 28 7 39 -1 11 4 23 11 27 9 6 9 8 0 8 -7 0 -13 9
-13 21 0 12 4 17 11 13 8 -4 8 -1 1 13 -6 11 -10 34 -10 52 1 25 5 31 17 26
14 -4 14 -4 1 7 -20 17 -25 49 -8 59 10 7 10 9 1 9 -7 0 -13 7 -13 16 0 8 5
12 10 9 6 -3 10 -1 10 4 0 6 -5 11 -11 11 -8 0 -7 6 2 17 10 12 10 15 1 9 -9
-5 -12 1 -10 23 1 16 6 27 11 24 5 -3 3 4 -5 16 -11 18 -10 23 7 36 14 10 15
13 4 9 -13 -4 -16 2 -15 28 1 18 5 39 10 47 6 10 6 12 -2 7 -7 -4 -12 -2 -12
3 0 6 6 11 13 11 8 0 8 3 2 8 -13 9 -13 42 -1 61 6 9 5 12 0 8 -6 -3 -11 16
-11 44 -1 27 2 49 7 49 6 0 10 4 10 8 0 5 -31 9 -70 8 -54 -1 -73 -5 -87 -20
-10 -10 -13 -16 -6 -12 6 3 14 2 18 -4 3 -5 1 -10 -6 -10 -8 0 -7 -5 2 -17 12
-15 12 -16 -1 -8 -13 8 -13 7 -1 -8 8 -10 9 -17 3 -17 -6 0 -9 -12 -7 -27 2
-16 4 -28 5 -28 5 0 5 -61 1 -70 -9 -15 -8 -29 1 -42 5 -6 4 -14 -2 -18 -7 -4
-8 -11 -1 -18 12 -15 12 -19 1 -56 -4 -16 -6 -32 -2 -35 8 -9 10 -66 1 -66 -3
0 -6 -11 -6 -25 0 -13 3 -22 8 -19 5 3 6 -2 3 -10 -3 -9 -11 -13 -18 -9 -6 3
-4 -2 5 -13 8 -10 14 -25 13 -31 -1 -7 -2 -24 -3 -38 0 -14 -5 -25 -10 -25 -5
0 -7 10 -5 23 4 20 4 21 -5 2 -7 -15 -5 -23 9 -33 15 -11 17 -19 10 -37 -5
-13 -6 -26 -2 -31 4 -4 1 -4 -6 0 -7 5 -11 15 -7 25 5 12 3 13 -5 5 -9 -9 -9
-18 1 -35 11 -22 11 -23 -5 -10 -14 12 -16 12 -10 -3 3 -9 1 -16 -5 -16 -6 0
-11 5 -11 10 0 6 -5 10 -11 10 -5 0 -8 -4 -5 -8 3 -5 -13 -9 -36 -10 -24 -1
-45 3 -50 10 -6 10 -8 10 -8 1 0 -7 -7 -13 -16 -13 -14 0 -15 2 -3 18 13 16
13 16 -7 -1 -24 -20 -40 -22 -47 -4 -4 9 -6 9 -6 0 -1 -7 -8 -13 -17 -13 -14
0 -15 2 -3 18 13 16 13 16 -7 0 -24 -21 -40 -23 -47 -5 -4 10 -6 10 -6 0 -1
-7 -8 -13 -17 -13 -14 0 -15 2 -3 18 13 16 13 16 -7 -1 -24 -20 -40 -22 -47
-4 -4 10 -6 10 -6 0 -1 -7 -8 -13 -17 -13 -14 0 -15 2 -3 18 13 16 13 16 -5 2
-22 -18 -66 -25 -66 -10 0 5 -5 10 -11 10 -5 0 -7 -5 -3 -11 8 -14 -55 -9 -75
5 -11 8 -13 8 -8 -1 6 -9 -5 -12 -38 -11 -26 0 -45 5 -45 12 0 7 -3 7 -8 1
-10 -14 -52 -19 -52 -6 0 6 -5 11 -11 11 -5 0 -7 -4 -4 -10 3 -6 -5 -10 -19
-10 -13 0 -27 6 -29 13 -4 10 -6 10 -6 0 -1 -8 -15 -13 -35 -13 -19 0 -37 6
-39 13 -4 10 -6 10 -6 0 -1 -7 -8 -13 -17 -13 -14 0 -15 2 -3 18 13 16 12 16
-7 -1 -21 -18 -47 -19 -73 -3 -10 6 -12 5 -7 -2 5 -8 -8 -11 -39 -10 -26 0
-45 5 -45 12 0 7 -3 6 -8 -2 -9 -13 -38 -12 -61 2 -10 6 -12 5 -7 -2 5 -8 -7
-11 -38 -10 -34 0 -46 5 -55 22 -11 21 -11 21 -5 -1 4 -16 1 -23 -9 -23 -9 0
-18 6 -20 13 -4 9 -6 9 -6 0 -1 -7 -8 -13 -17 -13 -14 0 -15 2 -3 18 13 16 13
16 -7 -1 -24 -20 -40 -22 -47 -4 -4 9 -6 9 -6 0 -1 -7 -8 -13 -17 -13 -14 0
-15 2 -3 18 13 16 13 16 -5 2 -22 -18 -66 -25 -66 -10 0 5 -5 10 -11 10 -5 0
-7 -5 -3 -11 8 -14 -55 -9 -75 5 -11 8 -13 8 -7 -2 4 -7 1 -12 -9 -12 -10 0
-14 5 -9 12 6 11 4 11 -7 0 -17 -16 -59 -16 -59 1 0 7 -3 8 -8 2 -10 -14 -52
-19 -52 -6 0 6 -5 11 -11 11 -5 0 -7 -5 -4 -10 3 -6 -5 -10 -19 -10 -13 0 -27
6 -29 13 -4 10 -6 10 -6 0 -1 -7 -8 -13 -17 -13 -14 0 -15 2 -3 18 13 16 13
16 -7 0 -24 -21 -40 -23 -47 -5 -4 9 -6 9 -6 0 -1 -7 -8 -13 -17 -13 -14 0
-15 2 -3 18 13 16 12 16 -7 -1 -21 -18 -47 -19 -73 -3 -10 6 -12 5 -7 -2 5 -8
-8 -11 -39 -10 -26 0 -45 5 -45 12 0 7 -3 6 -8 -2 -9 -13 -38 -12 -61 2 -10 6
-12 5 -7 -2 11 -19 -77 -12 -92 7 -11 14 -11 14 -6 -1 4 -11 1 -18 -6 -18 -7
0 -19 8 -26 18 -13 16 -14 16 -8 -1 5 -14 1 -17 -22 -16 -26 0 -27 1 -9 10 17
8 16 9 -7 6 -17 -3 -29 1 -32 10 -9 23 -7 30 4 13 8 -13 10 -12 10 3 0 10 -7
17 -17 17 -15 0 -16 2 -3 10 13 9 13 10 0 10 -13 0 -13 1 0 10 9 6 10 10 3 10
-12 0 -12 45 0 57 4 3 7 11 7 17 0 7 -3 6 -8 -1 -4 -7 -8 18 -8 55 0 37 5 70
11 74 6 5 6 8 -2 8 -7 0 -13 5 -13 11 0 6 7 9 15 5 8 -3 15 -1 15 4 0 6 -6 10
-13 10 -15 0 -18 125 -4 147 5 8 4 13 -2 13 -6 0 -11 5 -11 11 0 5 6 7 13 3 9
-6 9 -4 -1 8 -10 13 -10 17 0 21 10 4 10 6 1 6 -7 1 -13 6 -13 12 0 6 7 9 15
5 8 -3 15 -1 15 4 0 6 -6 10 -14 10 -15 0 -16 43 -3 57 4 3 7 11 7 17 0 7 -3
6 -8 -1 -4 -7 -8 18 -8 55 0 37 5 70 11 74 6 5 6 8 -2 8 -7 0 -13 5 -13 11 0
6 7 9 15 5 8 -3 15 -1 15 4 0 6 -6 10 -13 10 -15 0 -18 125 -4 148 5 7 3 12
-5 12 -10 0 -10 2 1 9 11 7 11 9 0 14 -12 4 -11 7 1 16 11 8 12 11 2 11 -7 0
-10 5 -7 10 4 6 11 8 16 5 5 -4 9 -1 9 4 0 6 -6 11 -13 11 -15 0 -18 125 -4
148 5 6 4 12 0 12 -11 0 -11 130 0 148 5 6 4 12 0 12 -11 0 -11 130 0 148 5 6
4 12 0 12 -11 0 -11 130 0 148 5 7 4 12 -2 12 -6 0 -11 5 -11 11 0 5 4 8 8 5
4 -2 8 4 8 14 0 10 -4 16 -9 13 -5 -3 -7 0 -5 8 3 8 11 13 17 12 6 -2 11 2 11
7 0 6 -6 10 -13 10 -15 0 -18 125 -4 148 5 7 4 12 -2 12 -6 0 -11 5 -11 11 0
5 6 7 13 3 9 -6 9 -4 -1 8 -10 13 -10 17 0 21 10 4 10 6 1 6 -7 1 -13 6 -13
12 0 6 7 9 15 5 8 -3 15 -1 15 4 0 6 -6 10 -14 10 -15 0 -16 43 -3 57 4 3 7
11 7 17 0 7 -3 6 -8 -1 -4 -7 -8 18 -8 55 0 37 5 70 11 74 6 5 6 8 -2 8 -7 0
-13 5 -13 11 0 6 7 9 15 5 8 -3 15 -1 15 4 0 6 -6 10 -13 10 -15 0 -18 125 -4
148 5 7 4 12 -2 12 -6 0 -11 5 -11 11 0 5 6 7 13 3 9 -6 9 -4 -1 8 -10 13 -10
17 0 21 10 4 10 6 1 6 -7 1 -13 6 -13 12 0 6 7 9 15 5 8 -3 15 -1 15 4 0 6 -6
10 -14 10 -15 0 -16 43 -3 57 4 3 7 11 7 17 0 6 -5 4 -10 -4 -7 -11 -8 -9 -6
11 1 13 5 30 9 36 3 5 3 13 -1 17 -11 12 -10 60 2 68 7 5 7 8 -1 8 -7 0 -13 5
-13 11 0 6 7 9 15 5 8 -3 15 -1 15 4 0 6 -6 10 -13 10 -15 0 -18 125 -4 148 5
7 4 12 -2 12 -6 0 -11 5 -11 11 0 5 6 7 13 3 9 -6 9 -4 -1 8 -10 13 -10 17 0
21 10 4 10 6 1 6 -7 1 -13 6 -13 12 0 6 7 9 15 5 8 -3 15 -1 15 4 0 6 -6 10
-14 10 -15 0 -16 55 -2 79 4 6 3 11 -3 11 -10 0 -8 39 4 77 5 14 12 20 23 16
11 -5 13 -3 7 8 -7 11 -5 11 10 -1 11 -9 16 -10 11 -2 -5 8 -1 12 13 12 10 0
22 -6 24 -12 4 -10 6 -10 6 0 1 6 11 12 24 12 13 0 29 -6 36 -12 11 -10 12
-10 7 -1 -5 10 4 12 33 11 26 -1 38 -5 34 -12 -3 -6 0 -5 8 2 20 18 33 15 18
-5 -12 -16 -12 -17 2 -6 9 7 20 9 24 5 5 -4 5 -1 1 6 -4 7 -1 12 9 12 9 0 13
-5 10 -11 -4 -6 3 -5 15 3 18 10 24 10 27 1 3 -7 9 -13 14 -13 6 0 7 5 4 10
-3 6 1 10 10 10 9 0 13 -5 10 -11 -4 -6 2 -5 13 2 18 11 23 10 39 -7 10 -11
15 -15 11 -10 -15 19 -8 27 20 24 16 -2 26 -8 24 -16 -1 -8 2 -11 8 -7 6 3 8
11 5 16 -9 13 78 8 87 -5 5 -8 8 -7 8 2 0 6 12 12 26 12 17 0 23 -4 18 -12 -6
-10 -4 -10 7 0 7 6 23 12 35 12 12 0 25 -6 27 -12 4 -10 6 -10 6 0 1 6 8 12
17 12 14 0 15 -2 3 -17 -13 -17 -12 -17 6 -3 26 21 75 25 86 8 7 -10 9 -10 9
0 0 6 12 12 26 12 14 0 23 -4 20 -8 -3 -5 1 -9 9 -9 8 0 12 4 9 9 -3 4 6 8 20
8 14 0 26 -6 26 -12 0 -10 2 -10 9 0 10 17 57 11 53 -6 -1 -8 2 -11 8 -7 6 3
8 11 5 16 -4 5 6 9 20 9 18 0 24 -4 19 -12 -6 -10 -4 -10 7 -3 22 17 71 18 80
3 7 -10 9 -10 9 0 0 6 12 12 26 12 14 0 23 -4 20 -8 -3 -5 1 -9 9 -9 8 0 12 4
9 9 -3 4 6 8 20 8 14 0 26 -6 26 -12 0 -10 2 -10 9 0 10 17 57 11 53 -6 -1 -8
2 -11 8 -7 6 3 8 11 5 16 -4 5 6 9 20 9 18 0 24 -4 19 -12 -6 -10 -3 -9 9 0
19 16 63 12 59 -6 -1 -8 2 -11 8 -7 6 3 8 11 5 16 -4 5 6 9 20 9 16 0 24 -4
20 -11 -4 -6 3 -5 14 3 18 11 23 11 31 -2 6 -10 10 -11 10 -2 0 6 12 12 26 12
14 0 23 -4 20 -8 -3 -5 1 -9 9 -9 8 0 12 3 10 7 -2 4 9 7 26 8 19 0 27 -3 23
-11 -3 -7 2 -3 12 8 16 20 16 20 12 -1 -5 -17 -2 -20 14 -16 15 4 17 7 6 13
-8 5 -2 7 17 6 29 -2 29 -4 31 -60 1 -36 -3 -57 -10 -57 -6 0 -4 -5 4 -10 13
-8 13 -13 2 -31 -8 -11 -9 -18 -3 -14 6 3 11 -1 11 -10 0 -10 -5 -13 -12 -9
-10 6 -10 5 -2 -7 13 -16 16 -71 4 -64 -10 6 -7 -21 3 -31 4 -4 7 -17 7 -28 0
-17 -2 -18 -10 -6 -6 9 -10 10 -10 3 0 -6 5 -15 10 -18 14 -9 12 -42 -2 -48
-10 -4 -9 -6 1 -6 11 -1 10 -6 -5 -23 -15 -19 -16 -20 -1 -9 15 12 17 11 17
-3 0 -9 -6 -16 -12 -16 -7 0 -5 -5 5 -11 9 -5 17 -15 17 -20 0 -6 -4 -7 -10
-4 -5 3 -10 1 -10 -4 0 -6 7 -11 15 -11 8 0 15 -4 15 -10 0 -5 10 -19 23 -31
12 -12 17 -19 11 -16 -6 3 -11 0 -11 -7 0 -8 7 -12 15 -8 11 4 13 1 7 -8 -5
-8 -4 -11 3 -6 12 7 63 -13 74 -29 5 -6 8 -6 8 0 0 6 5 3 10 -5 6 -10 10 -11
10 -3 0 9 14 12 40 11 22 -1 40 -5 40 -10 0 -5 -5 -6 -12 -2 -7 5 -8 3 -3 -6
6 -11 10 -10 19 2 12 16 116 22 116 6 0 -5 -5 -6 -12 -2 -7 5 -8 3 -3 -6 7
-11 10 -10 19 1 13 17 98 20 92 3 -2 -6 2 -11 9 -11 7 0 11 6 9 12 -3 6 2 12
11 12 10 0 14 -6 10 -16 -3 -11 0 -10 10 3 11 15 15 16 15 5 0 -8 -6 -21 -12
-28 -7 -8 -8 -11 -2 -8 16 9 46 -27 38 -46 -3 -10 -11 -14 -18 -10 -6 4 -4 -1
4 -12 8 -10 14 -20 13 -22 -2 -1 -2 -6 -2 -10 4 -28 4 -40 -3 -54 -4 -9 -4
-19 -1 -23 9 -9 11 -66 2 -66 -4 0 -6 -8 -4 -17 2 -10 4 -23 4 -30 2 -22 30
-41 52 -36 13 4 20 2 16 -4 -3 -5 0 -10 8 -10 8 0 11 5 8 10 -4 6 5 8 21 5 22
-4 26 -2 26 18 0 35 1 38 13 53 9 12 9 13 0 7 -7 -4 -13 -2 -13 3 0 6 6 11 13
11 8 0 8 3 2 8 -14 9 -16 72 -3 72 6 0 7 -8 3 -17 -5 -15 -4 -16 7 -5 11 11
10 15 -2 25 -20 16 -23 36 -8 55 10 12 10 14 1 8 -7 -4 -13 -2 -13 3 0 6 6 11
13 11 7 0 8 3 2 8 -16 11 -18 44 -3 53 8 6 9 9 2 9 -7 0 -12 15 -12 35 0 19 4
33 8 30 5 -3 12 -1 15 5 4 6 1 9 -6 8 -7 -2 -14 11 -16 32 -3 19 -9 37 -14 38
-5 2 -9 10 -9 18 0 9 -4 12 -10 9 -5 -3 -10 -1 -10 4 0 6 -14 24 -31 40 -17
17 -28 35 -24 40 3 7 0 8 -9 5 -15 -6 -21 6 -17 29 1 5 -2 6 -7 3 -10 -6 -43
30 -35 38 4 3 0 6 -8 6 -16 0 -66 59 -61 73 1 4 -2 6 -7 5 -10 -3 -51 40 -51
54 0 5 -4 6 -10 3 -5 -3 -10 -1 -10 5 0 6 -16 26 -36 45 -21 21 -32 39 -28 47
5 8 2 9 -9 5 -11 -4 -17 -1 -17 8 0 8 -4 15 -10 15 -5 0 -10 7 -10 17 0 9 -3
13 -7 10 -7 -8 -53 31 -53 45 0 5 -12 20 -26 33 -14 13 -23 29 -19 34 3 6 0 9
-8 5 -8 -3 -20 3 -28 12 -9 11 -9 15 -2 10 7 -4 20 -3 28 1 11 7 5 9 -21 10
-35 1 -58 18 -48 35 3 4 -2 5 -11 1 -13 -5 -14 -8 -3 -15 9 -6 3 -8 -17 -6
-20 2 -29 8 -27 18 1 10 -5 7 -17 -7 -16 -20 -20 -20 -25 -7 -5 13 -9 14 -20
5 -9 -8 -103 -11 -315 -10 -268 2 -301 4 -302 18 0 10 -3 8 -9 -6 -5 -13 -12
-23 -15 -23 -4 0 -4 3 -2 8 3 4 -62 6 -145 5 -136 -1 -149 0 -144 15 5 15 5
15 -8 0 -12 -16 -41 -18 -347 -17 -292 1 -336 4 -354 18 -18 15 -19 15 -6 -1
12 -16 11 -18 -3 -18 -9 0 -29 7 -44 16 -20 12 -22 12 -9 1z m1922 -308 c1 -8
6 -13 13 -11 7 1 12 -3 12 -9 0 -6 -7 -8 -15 -5 -19 7 -32 -21 -17 -36 8 -8 9
-5 6 9 -9 32 38 18 75 -23 32 -34 40 -51 19 -38 -7 4 -8 3 -4 -4 4 -6 14 -8
24 -5 15 6 16 5 2 -12 -10 -13 -11 -16 -2 -11 15 9 96 -70 87 -85 -4 -5 0 -9
8 -9 8 0 22 -9 32 -20 10 -11 15 -20 10 -20 -4 0 3 -9 16 -20 13 -10 18 -19
12 -20 -7 0 -13 5 -13 10 0 6 -5 10 -11 10 -6 0 -9 -6 -6 -13 3 -7 -3 -13 -13
-13 -15 0 -16 4 -9 18 7 14 6 16 -6 12 -8 -4 -15 -11 -15 -18 0 -7 -25 -11
-78 -9 -105 2 -104 1 -96 16 6 10 4 10 -7 0 -22 -21 -41 -16 -34 10 5 17 4 19
-4 7 -9 -13 -12 -13 -23 -1 -11 12 -10 12 2 6 12 -7 13 -6 4 6 -19 23 -21 53
-4 69 9 8 10 11 4 7 -10 -6 -12 -1 -10 20 1 16 8 27 15 25 7 -1 10 2 6 8 -3 6
-10 8 -15 5 -5 -3 -11 -1 -14 4 -4 5 -2 12 3 15 5 3 5 21 1 41 -5 22 -4 33 2
29 6 -4 7 8 3 30 -6 31 -4 36 11 37 17 1 17 2 2 6 -10 2 -18 9 -18 15 0 16 45
-17 45 -33z m375 -489 c0 -5 -2 -10 -4 -10 -3 0 -8 5 -11 10 -3 6 -1 10 4 10
6 0 11 -4 11 -10z"/>
<path d="M2445 3492 c-10 -7 -18 -32 -10 -32 2 0 9 9 15 20 12 22 11 24 -5 12z"/>
<path d="M2513 3406 c0 -7 6 -13 14 -13 7 0 13 4 13 8 0 4 -6 9 -13 12 -8 3
-14 0 -14 -7z"/>
<path d="M2586 3318 c3 -5 10 -6 15 -3 13 9 11 12 -6 12 -8 0 -12 -4 -9 -9z"/>
<path d="M2610 3302 c0 -5 7 -9 15 -9 8 0 12 4 9 9 -3 4 -9 8 -15 8 -5 0 -9
-4 -9 -8z"/>
<path d="M2635 3270 c3 -5 8 -10 11 -10 2 0 4 5 4 10 0 6 -5 10 -11 10 -5 0
-7 -4 -4 -10z"/>
<path d="M2684 3225 c8 -8 18 -15 22 -15 3 0 1 7 -6 15 -7 8 -17 15 -22 15 -5
0 -3 -7 6 -15z"/>
<path d="M2529 3197 c6 -8 7 -18 3 -22 -4 -5 -1 -5 6 -1 10 6 10 11 1 22 -6 8
-14 14 -16 14 -3 0 0 -6 6 -13z"/>
<path d="M2650 3200 c-9 -6 -10 -10 -3 -10 6 0 15 5 18 10 8 12 4 12 -15 0z"/>
<path d="M700 3800 c-9 -6 -10 -10 -3 -10 6 0 15 5 18 10 8 12 4 12 -15 0z"/>
<path d="M820 3800 c-9 -6 -10 -10 -3 -10 6 0 15 5 18 10 8 12 4 12 -15 0z"/>
<path d="M864 3802 c4 -3 14 -7 22 -8 9 -1 13 0 10 4 -4 3 -14 7 -22 8 -9 1
-13 0 -10 -4z"/>
<path d="M1015 3800 c-3 -5 -1 -10 4 -10 6 0 11 5 11 10 0 6 -2 10 -4 10 -3 0
-8 -4 -11 -10z"/>
<path d="M1095 3800 c-3 -5 -1 -10 4 -10 6 0 11 5 11 10 0 6 -2 10 -4 10 -3 0
-8 -4 -11 -10z"/>
<path d="M1175 3800 c-3 -5 -1 -10 4 -10 6 0 11 5 11 10 0 6 -2 10 -4 10 -3 0
-8 -4 -11 -10z"/>
<path d="M1255 3800 c-3 -5 -1 -10 4 -10 6 0 11 5 11 10 0 6 -2 10 -4 10 -3 0
-8 -4 -11 -10z"/>
<path d="M1375 3800 c-3 -5 -1 -10 4 -10 6 0 11 5 11 10 0 6 -2 10 -4 10 -3 0
-8 -4 -11 -10z"/>
<path d="M1495 3800 c-3 -5 -1 -10 4 -10 6 0 11 5 11 10 0 6 -2 10 -4 10 -3 0
-8 -4 -11 -10z"/>
<path d="M1695 3800 c-3 -5 -1 -10 4 -10 6 0 11 5 11 10 0 6 -2 10 -4 10 -3 0
-8 -4 -11 -10z"/>
<path d="M1815 3800 c-3 -5 -1 -10 4 -10 6 0 11 5 11 10 0 6 -2 10 -4 10 -3 0
-8 -4 -11 -10z"/>
<path d="M1876 3802 c-3 -5 1 -9 9 -9 8 0 12 4 9 9 -3 4 -7 8 -9 8 -2 0 -6 -4
-9 -8z"/>
<path d="M1975 3800 c-3 -5 -1 -10 4 -10 6 0 11 5 11 10 0 6 -2 10 -4 10 -3 0
-8 -4 -11 -10z"/>
<path d="M2055 3800 c-3 -5 -1 -10 4 -10 6 0 11 5 11 10 0 6 -2 10 -4 10 -3 0
-8 -4 -11 -10z"/>
<path d="M2135 3800 c-3 -5 -1 -10 4 -10 6 0 11 5 11 10 0 6 -2 10 -4 10 -3 0
-8 -4 -11 -10z"/>
<path d="M2215 3800 c-3 -5 -1 -10 4 -10 6 0 11 5 11 10 0 6 -2 10 -4 10 -3 0
-8 -4 -11 -10z"/>
<path d="M450 3756 c7 -7 13 -7 20 0 6 6 3 10 -10 10 -13 0 -16 -4 -10 -10z"/>
<path d="M2500 3663 c0 -13 17 -26 38 -29 6 -1 10 2 6 7 -3 5 -9 7 -14 4 -5
-3 -13 3 -19 12 -6 10 -11 13 -11 6z"/>
<path d="M2265 3631 c-3 -5 -2 -12 3 -15 5 -3 9 1 9 9 0 17 -3 19 -12 6z"/>
<path d="M537 3613 c-10 -9 -9 -23 1 -23 5 0 9 7 9 15 0 17 -1 18 -10 8z"/>
<path d="M2256 3597 c3 -10 9 -15 12 -12 3 3 0 11 -7 18 -10 9 -11 8 -5 -6z"/>
<path d="M355 3580 c3 -5 8 -10 11 -10 2 0 4 5 4 10 0 6 -5 10 -11 10 -5 0 -7
-4 -4 -10z"/>
<path d="M2616 3547 c3 -10 9 -15 12 -12 3 3 0 11 -7 18 -10 9 -11 8 -5 -6z"/>
<path d="M2695 3460 c-3 -5 -1 -10 4 -10 6 0 11 5 11 10 0 6 -2 10 -4 10 -3 0
-8 -4 -11 -10z"/>
<path d="M1079 3438 c-1 -7 -1 -17 0 -22 1 -5 -8 -6 -21 -2 -47 14 -74 17 -58
7 10 -7 2 -9 -28 -8 -23 1 -42 5 -42 9 0 5 -5 8 -11 8 -5 0 -7 -4 -4 -10 3 -5
-1 -10 -10 -10 -10 0 -13 5 -9 13 6 9 4 9 -7 1 -19 -14 -45 -11 -41 5 1 7 -2
10 -8 6 -6 -3 -8 -11 -5 -16 9 -14 -19 -11 -34 4 -11 10 -13 10 -7 0 5 -9 0
-13 -13 -13 -17 0 -21 -6 -21 -34 0 -19 -6 -37 -12 -39 -10 -4 -10 -6 0 -6 6
-1 12 -8 12 -17 0 -9 -5 -13 -12 -9 -7 4 -5 0 4 -8 10 -8 14 -18 10 -22 -4 -5
0 -4 8 0 19 11 50 14 50 4 0 -10 34 -6 42 6 5 6 8 3 8 -7 0 -9 4 -20 10 -23 6
-4 7 1 3 11 -4 12 -3 15 5 10 7 -4 12 -2 12 6 0 10 2 10 9 -1 6 -10 10 -10 16
-1 5 8 12 7 25 -5 17 -15 19 -15 29 2 6 10 11 13 11 8 0 -6 9 -11 20 -12 11
-1 18 2 15 6 -2 5 7 7 22 5 14 -1 30 -9 34 -16 6 -10 9 -8 10 7 0 11 3 15 5 9
3 -7 15 -9 26 -6 17 4 20 2 15 -12 -4 -10 -3 -15 3 -11 6 3 10 14 10 23 1 15
2 15 15 -2 14 -18 15 -19 15 -2 0 17 1 17 18 -1 9 -10 14 -14 10 -9 -5 6 -8
14 -8 18 0 12 23 5 36 -11 12 -15 12 -13 16 49 1 17 5 30 10 30 4 0 8 5 8 11
0 5 -6 7 -12 3 -8 -5 -7 0 2 11 12 15 12 17 1 10 -11 -6 -13 -4 -8 8 6 17 -13
23 -52 18 -8 -2 -10 2 -5 11 6 10 4 10 -9 -1 -11 -9 -17 -10 -17 -2 0 6 -5 11
-11 11 -5 0 -7 -4 -4 -10 3 -5 -1 -10 -10 -10 -10 0 -13 5 -9 13 6 9 4 9 -7 1
-21 -16 -44 -11 -41 9 2 9 0 17 -3 17 -3 0 -6 -6 -6 -12z"/>
<path d="M736 3397 c3 -10 9 -15 12 -12 3 3 0 11 -7 18 -10 9 -11 8 -5 -6z"/>
<path d="M735 3360 c-3 -5 -1 -10 4 -10 6 0 11 5 11 10 0 6 -2 10 -4 10 -3 0
-8 -4 -11 -10z"/>
<path d="M790 3259 c0 -5 5 -7 10 -4 6 3 10 8 10 11 0 2 -4 4 -10 4 -5 0 -10
-5 -10 -11z"/>
<path d="M2910 3221 c0 -6 4 -13 10 -16 6 -3 7 1 4 9 -7 18 -14 21 -14 7z"/>
<path d="M1070 3200 c0 -5 5 -10 11 -10 5 0 7 5 4 10 -3 6 -8 10 -11 10 -2 0
-4 -4 -4 -10z"/>
<path d="M1310 3201 c0 -6 4 -13 10 -16 6 -3 7 1 4 9 -7 18 -14 21 -14 7z"/>
<path d="M830 3177 c0 -7 -11 -12 -27 -11 -45 2 -49 -4 -50 -65 -1 -47 3 -60
19 -70 11 -7 17 -8 14 -3 -3 6 19 10 54 10 33 0 60 -5 60 -10 0 -5 -5 -6 -12
-2 -7 5 -8 3 -3 -6 6 -10 11 -10 20 3 14 20 30 23 19 5 -6 -10 -5 -10 8 0 13
10 18 9 29 -4 11 -13 15 -13 23 -2 13 15 116 21 116 6 0 -5 -5 -6 -12 -2 -7 5
-8 3 -3 -6 7 -11 10 -10 19 1 13 16 116 23 116 7 0 -5 -5 -6 -12 -2 -7 5 -8 3
-3 -6 6 -10 11 -10 20 3 14 20 30 23 19 5 -6 -10 -4 -10 7 -2 8 6 61 10 124
10 113 -1 146 8 122 34 -9 10 -9 11 1 6 6 -4 12 -2 12 3 0 6 -4 11 -10 11 -5
0 -10 5 -10 11 0 5 4 7 10 4 6 -4 7 2 1 17 -4 13 -6 28 -4 34 3 8 -21 11 -74
10 -43 -1 -88 2 -101 6 -13 4 -21 4 -18 -1 5 -8 -53 -5 -81 4 -7 3 -13 -1 -13
-7 0 -7 -5 -6 -15 2 -12 10 -15 10 -15 -1 0 -11 -2 -11 -10 1 -8 12 -10 12
-10 1 0 -11 -3 -11 -15 -1 -8 7 -15 9 -15 4 0 -11 -91 -11 -108 0 -7 4 -12 2
-12 -4 0 -8 -6 -8 -20 0 -15 8 -20 8 -20 -1 0 -8 -4 -8 -15 1 -12 10 -15 10
-15 -1 0 -8 -6 -5 -15 7 -9 12 -13 13 -10 4 4 -12 -2 -15 -27 -14 -49 3 -50 3
-43 14 3 6 1 10 -4 10 -6 0 -11 -6 -11 -13z m150 -147 c0 -5 -2 -10 -4 -10 -3
0 -8 5 -11 10 -3 6 -1 10 4 10 6 0 11 -4 11 -10z"/>
<path d="M865 3179 c-3 -4 2 -6 10 -5 21 3 28 13 10 13 -9 0 -18 -4 -20 -8z"/>
<path d="M1345 3179 c-3 -4 2 -6 10 -5 21 3 28 13 10 13 -9 0 -18 -4 -20 -8z"/>
<path d="M357 3143 c-5 -9 10 -53 17 -53 3 0 1 11 -4 24 -5 13 -6 27 -3 30 4
3 4 6 0 6 -3 0 -8 -3 -10 -7z"/>
<path d="M3256 3132 c-2 -4 -1 -14 4 -22 7 -11 9 -9 7 8 -1 24 -3 26 -11 14z"/>
<path d="M3315 3120 c3 -5 8 -10 11 -10 2 0 4 5 4 10 0 6 -5 10 -11 10 -5 0
-7 -4 -4 -10z"/>
<path d="M3378 3118 c-2 -6 -24 -13 -49 -14 -24 -1 -56 -7 -70 -12 -19 -8 -30
-7 -39 1 -10 9 -11 9 -6 0 4 -7 2 -13 -4 -13 -6 0 -8 -4 -5 -10 3 -5 -5 -12
-18 -15 -14 -4 -29 -17 -35 -31 -8 -17 -16 -22 -29 -17 -15 6 -16 4 -5 -9 8
-10 9 -19 3 -22 -5 -3 -11 0 -14 6 -2 7 -5 2 -5 -12 -2 -47 -14 -100 -23 -100
-5 0 -9 -5 -9 -11 0 -5 5 -7 10 -4 6 3 10 -3 10 -15 0 -12 -4 -19 -9 -15 -5 3
-13 0 -17 -6 -4 -8 -3 -9 4 -5 6 4 18 -6 27 -24 16 -31 11 -41 -9 -15 -8 11
-15 12 -26 4 -13 -9 -12 -10 3 -5 9 3 17 3 17 -1 0 -3 -8 -12 -17 -20 -16 -13
-16 -13 3 -4 15 7 26 7 39 -2 16 -12 16 -14 0 -27 -12 -10 -21 -11 -34 -3 -14
9 -18 8 -18 -3 0 -7 3 -11 7 -9 3 2 12 0 20 -6 12 -7 12 -9 -3 -9 -12 0 -16
-4 -11 -12 6 -9 3 -9 -9 0 -12 10 -20 11 -34 2 -16 -10 -15 -10 5 -5 13 4 22
2 22 -4 0 -6 -5 -11 -11 -11 -5 0 -7 -5 -3 -11 3 -6 -5 -4 -19 6 -17 11 -27
13 -32 5 -3 -6 -3 -10 2 -9 36 6 42 -18 8 -38 -11 -6 -19 -14 -17 -17 1 -3 0
-6 -3 -6 -3 0 -10 0 -17 0 -9 0 -9 3 0 12 7 7 12 16 12 22 0 5 -6 1 -14 -10
-9 -11 -11 -25 -6 -33 6 -11 -3 -23 -27 -43 -20 -15 -32 -28 -27 -28 5 0 -2
-7 -15 -17 -23 -15 -25 -15 -37 2 -8 10 -14 15 -14 10 0 -5 7 -16 16 -26 14
-16 14 -18 -4 -23 -10 -4 -25 -18 -32 -31 -15 -28 -29 -31 -50 -12 -12 10 -12
9 0 -6 11 -15 11 -20 -4 -35 -16 -16 -17 -16 -10 1 3 9 2 17 -4 17 -6 0 -9
-11 -7 -25 1 -17 -3 -25 -13 -25 -8 0 -13 -3 -10 -6 4 -3 -12 -22 -35 -42 -23
-20 -46 -43 -50 -49 -4 -7 -15 -13 -23 -13 -8 0 -13 -4 -10 -9 3 -5 -1 -11 -9
-15 -9 -3 -15 0 -15 10 0 8 11 19 24 23 13 5 26 18 30 28 5 16 4 16 -7 3 -23
-27 -58 -43 -70 -31 -6 6 -15 11 -20 11 -5 0 1 -9 14 -20 l24 -20 -27 11 c-16
7 -28 16 -28 21 0 4 -5 8 -11 8 -5 0 -7 -5 -3 -11 5 -8 1 -8 -13 0 -11 6 -23
7 -27 4 -3 -3 -6 -2 -6 4 0 16 -28 24 -36 11 -4 -7 -3 -8 4 -4 7 4 12 3 12 -3
0 -5 -15 -8 -32 -7 -18 2 -50 -3 -71 -10 -29 -10 -36 -10 -31 -1 4 7 4 9 -1 5
-4 -4 -14 -3 -21 3 -8 7 -14 7 -19 -1 -4 -6 -1 -9 6 -8 18 4 22 -19 4 -26 -11
-4 -14 -2 -10 7 4 6 -3 0 -15 -15 -12 -16 -28 -28 -36 -28 -9 0 -12 -5 -8 -12
5 -7 2 -9 -9 -5 -10 4 -14 2 -11 -6 2 -7 -5 -22 -16 -34 -11 -12 -20 -27 -20
-33 0 -5 -5 -10 -10 -10 -6 0 -9 -3 -8 -7 2 -5 -1 -8 -7 -8 -5 0 -9 4 -7 8 1
5 -3 5 -9 2 -8 -5 -7 -12 4 -22 11 -11 12 -24 6 -51 -4 -20 -5 -40 -2 -45 3
-6 1 -7 -5 -3 -7 4 -12 3 -12 -3 0 -5 5 -11 12 -13 7 -3 8 -10 4 -17 -7 -11
-10 -11 -18 0 -8 11 -9 11 -5 -1 2 -8 9 -14 15 -13 8 2 14 -14 28 -77 1 -8 -4
-22 -12 -31 -12 -14 -12 -16 1 -16 8 0 12 4 9 9 -3 4 2 8 10 8 9 0 16 -7 16
-15 0 -18 40 -58 90 -91 26 -18 37 -31 34 -42 -5 -15 -4 -14 6 0 10 16 14 17
40 3 16 -8 38 -15 50 -15 14 0 19 -4 14 -12 -5 -9 -2 -9 9 1 11 9 17 10 17 2
0 -6 5 -11 11 -11 5 0 7 5 3 12 -5 8 0 9 14 6 13 -4 22 -1 22 5 0 7 5 5 10 -3
5 -8 10 -10 10 -4 0 7 11 14 25 16 13 3 22 1 19 -3 -3 -5 0 -9 5 -9 6 0 11 7
11 16 0 14 3 15 18 3 9 -7 14 -9 10 -5 -4 5 -3 15 3 23 13 15 39 0 39 -23 0
-7 9 -15 19 -19 11 -3 23 -15 26 -26 4 -10 10 -17 15 -14 10 6 32 -20 23 -28
-3 -4 2 -7 13 -7 16 0 17 -2 4 -10 -12 -8 -10 -10 8 -10 13 0 20 -4 17 -10 -3
-5 0 -10 8 -10 13 0 47 -30 47 -43 0 -3 -8 -4 -18 -2 -11 2 -19 -3 -19 -10 0
-8 5 -11 11 -7 19 11 40 11 53 0 18 -14 16 -29 -2 -22 -8 4 -12 11 -8 17 4 6
1 7 -6 2 -16 -9 -2 -24 28 -30 31 -6 53 -25 47 -41 -3 -8 0 -11 10 -7 10 4 17
-2 21 -16 3 -11 9 -18 14 -15 5 3 9 -2 9 -10 0 -9 5 -16 11 -16 13 0 149 -136
149 -149 0 -5 7 -11 15 -15 12 -4 13 -10 3 -31 -8 -18 -14 -22 -24 -14 -8 7
-14 6 -20 -2 -4 -7 -3 -9 3 -6 6 4 16 0 23 -8 8 -10 9 -15 2 -15 -7 0 -9 -7
-5 -17 4 -10 2 -14 -5 -9 -6 3 -14 2 -17 -4 -4 -6 -1 -9 6 -8 6 2 14 -3 17
-11 3 -10 0 -11 -9 -5 -11 6 -12 5 -2 -7 6 -8 13 -26 15 -39 2 -14 10 -36 17
-49 11 -19 11 -22 -1 -16 -7 3 -5 0 5 -8 9 -8 17 -17 17 -20 0 -4 -8 -4 -17
-1 -15 5 -15 4 -3 -4 8 -6 17 -9 21 -6 4 2 16 -6 26 -19 19 -25 113 -82 113
-69 0 4 5 0 10 -8 5 -8 10 -10 10 -3 0 6 9 9 20 6 11 -3 18 -9 15 -12 -2 -4 2
-8 10 -8 8 0 11 5 8 10 -4 6 3 8 15 5 13 -4 22 -1 22 5 0 7 8 3 17 -8 12 -15
14 -16 10 -3 -7 19 14 30 34 17 24 -15 34 -10 13 7 -13 11 -14 14 -3 11 8 -3
21 4 28 14 6 11 19 18 29 17 11 -2 16 3 14 15 -2 9 4 20 13 23 8 3 15 13 15
21 0 8 5 11 11 7 8 -4 9 0 4 15 -7 23 4 28 23 9 9 -9 15 -9 23 -1 8 8 6 11 -7
10 -11 -1 -18 4 -16 11 1 9 -2 11 -10 6 -10 -6 -10 -4 -2 7 6 8 10 29 9 47 -3
27 0 32 13 28 15 -5 15 -5 2 6 -21 17 -19 43 3 42 9 -1 14 2 11 7 -3 5 -13 8
-22 7 -9 -2 -18 5 -20 16 -2 11 -11 26 -19 34 -8 8 -12 21 -9 29 3 8 2 11 -3
8 -5 -3 -16 3 -23 12 -18 24 -74 63 -91 63 -8 0 -19 10 -26 23 -6 12 -9 14 -7
4 3 -10 0 -17 -8 -17 -18 0 -48 35 -39 45 5 4 2 5 -5 0 -10 -5 -11 -10 -3 -18
18 -18 13 -24 -16 -22 -16 1 -44 -3 -63 -10 -43 -14 -66 -13 -62 3 1 7 -3 12
-8 12 -15 0 -60 47 -53 54 4 3 1 6 -6 6 -16 0 -41 25 -41 40 0 6 -4 9 -9 6
-14 -9 -73 63 -67 81 5 12 3 13 -7 5 -10 -9 -27 3 -76 53 -35 35 -60 69 -56
75 5 8 12 7 23 -1 13 -10 13 -9 -1 7 -15 16 -19 17 -27 4 -8 -12 -16 -8 -44
23 -19 20 -39 37 -43 37 -14 0 -33 39 -23 45 13 8 13 25 -1 25 -5 0 -7 -4 -4
-10 12 -20 -22 -10 -42 13 -27 30 -40 52 -24 43 8 -5 12 -3 10 5 -4 30 2 46
16 46 20 0 19 -7 -2 -24 -16 -13 -16 -13 5 -3 12 6 28 8 35 5 6 -4 0 5 -15 18
-25 23 -25 25 -8 30 11 3 18 0 17 -5 -1 -5 8 -14 19 -18 19 -7 21 -5 19 20 -2
20 1 27 11 23 8 -3 11 -10 8 -17 -3 -6 1 -3 9 7 11 13 16 15 19 5 3 -7 -2 -18
-11 -25 -13 -10 -14 -14 -3 -25 11 -11 12 -10 6 6 -6 16 -4 18 10 13 10 -4 15
-3 11 3 -7 11 -5 11 37 14 14 0 30 5 35 10 5 6 2 6 -7 1 -8 -5 -12 -5 -8 -1 9
10 128 13 121 4 -2 -5 1 -8 8 -8 8 0 9 -4 0 -13 -8 -10 -7 -14 3 -14 7 0 13 9
12 20 -1 17 7 19 71 20 39 1 69 -2 66 -6 -2 -4 8 -5 23 -1 21 6 25 4 19 -7 -6
-11 -5 -12 6 -2 16 16 33 17 23 1 -4 -6 -3 -8 4 -4 6 3 15 -2 21 -11 7 -12 10
-13 11 -4 0 8 6 11 16 7 9 -3 12 -2 9 4 -4 6 -14 9 -22 8 -9 -2 -18 2 -20 9
-3 9 4 10 26 3 16 -4 31 -7 33 -5 2 2 9 -5 16 -15 7 -11 8 -20 3 -20 -5 0 -11
6 -14 13 -3 6 -4 2 -4 -10 1 -17 6 -22 18 -18 10 3 21 0 25 -6 4 -7 3 -9 -2
-6 -6 3 -16 1 -24 -4 -13 -9 -13 -10 0 -8 31 3 40 -2 40 -21 0 -11 5 -20 11
-20 5 0 7 6 3 13 -4 6 3 2 15 -10 12 -13 26 -23 32 -23 6 0 8 -10 4 -22 -5
-20 -5 -21 5 -5 9 13 15 15 24 7 8 -5 32 -13 55 -16 23 -3 48 -7 54 -8 7 -1
18 -5 25 -10 8 -5 12 -3 10 6 -2 8 6 13 20 12 12 0 22 3 22 8 0 4 9 8 19 8 10
0 21 7 25 15 3 8 10 15 16 15 13 0 45 32 53 54 4 10 12 14 18 10 7 -4 10 -3 7
2 -3 5 -1 20 4 34 6 14 12 35 14 48 1 13 9 31 16 40 10 12 10 14 1 8 -10 -5
-13 3 -14 31 -1 21 -1 41 0 46 0 4 -4 7 -10 7 -7 0 -9 10 -7 24 4 18 1 23 -10
18 -10 -3 -13 -1 -8 6 3 6 -3 16 -14 22 -11 6 -20 16 -20 23 0 7 4 6 10 -3 7
-11 10 -11 10 -2 0 7 5 10 12 6 6 -4 8 -3 4 4 -3 6 -17 9 -29 6 -15 -2 -33 6
-53 24 -16 15 -38 26 -48 24 -10 -2 -16 0 -13 5 5 8 -126 10 -143 3 -3 -1 -8
-2 -12 -1 -5 0 -8 -4 -8 -10 0 -6 -9 -8 -21 -4 -16 5 -19 4 -14 -5 5 -9 1 -10
-16 -6 -13 3 -18 3 -11 0 19 -9 14 -24 -5 -17 -10 3 -15 3 -11 -1 3 -4 -9 -28
-28 -53 -30 -39 -37 -54 -36 -73 0 -3 -26 -6 -59 -6 -32 -1 -59 3 -59 8 0 5 5
6 10 3 6 -3 10 -1 10 4 0 12 -35 9 -47 -4 -5 -4 -2 -5 5 -1 6 4 12 3 12 -2 0
-5 -18 -9 -40 -9 -22 0 -40 5 -40 11 0 6 -5 4 -10 -4 -9 -13 -11 -13 -20 0 -5
8 -10 10 -10 4 0 -6 -24 -10 -60 -10 -36 0 -60 4 -60 10 0 6 -5 4 -10 -4 -9
-13 -11 -13 -20 0 -5 8 -10 10 -10 4 0 -15 -206 -12 -222 4 -6 6 -8 12 -4 12
5 0 3 7 -4 15 -7 8 -9 15 -4 15 5 0 2 5 -6 11 -12 9 -11 10 5 5 16 -5 16 -3
-5 14 -22 17 -21 25 4 21 5 -1 7 4 4 11 -2 7 26 43 63 79 50 49 71 63 79 55 8
-8 9 -6 5 6 -11 28 6 44 23 22 13 -18 14 -18 7 3 -5 17 2 30 30 58 37 35 52
45 39 23 -4 -7 -3 -8 4 -4 7 4 12 16 12 26 0 10 5 22 12 26 7 5 8 2 3 -7 -5
-8 -5 -11 0 -7 4 4 14 3 21 -3 8 -7 14 -6 20 2 4 8 3 9 -5 5 -6 -4 -14 0 -18
9 -8 23 17 37 37 22 13 -10 13 -10 2 5 -18 23 -5 41 24 34 14 -4 24 -2 24 4 0
6 -4 9 -9 5 -5 -3 -12 -1 -16 5 -3 5 1 10 10 10 10 0 13 5 9 12 -4 7 -3 8 5 4
17 -11 41 12 34 31 -4 11 -2 14 5 9 7 -4 12 -2 12 6 0 7 8 18 19 25 15 9 23 8
40 -3 18 -13 20 -13 15 0 -3 8 -12 17 -20 20 -22 8 -7 26 21 26 34 0 56 -10
48 -24 -4 -6 1 -5 10 3 19 15 24 2 6 -16 -8 -8 -8 -13 0 -18 6 -3 10 -1 9 5
-2 7 5 17 16 23 15 10 20 9 23 -2 3 -8 8 -9 12 -3 3 5 22 11 41 13 19 2 41 7
48 13 9 7 17 5 24 -5 8 -11 9 -11 4 3 -3 10 -1 20 4 23 6 4 10 2 10 -2 0 -5 8
-9 18 -9 10 0 19 6 19 12 0 7 -7 9 -16 6 -14 -5 -14 -3 -3 10 7 9 21 15 31 13
10 -2 18 3 18 10 0 8 -5 11 -11 8 -6 -3 0 6 13 20 13 15 29 24 35 20 7 -4 7
-1 -1 7 -9 9 -8 21 1 49 7 20 12 43 11 51 0 8 6 20 15 27 8 7 11 13 6 13 -5 0
-2 8 5 18 13 15 12 16 -3 3 -10 -7 -15 -17 -12 -22 3 -5 0 -9 -7 -9 -6 0 -9 8
-6 20 3 11 1 23 -4 26 -5 3 -7 16 -5 29 3 14 1 24 -4 22 -9 -2 -60 68 -60 84
0 6 -5 7 -10 4 -14 -8 -42 14 -34 27 3 5 0 8 -7 7 -30 -6 -78 12 -72 27 3 8 3
14 0 14 -3 0 -7 -5 -9 -12z m-10 -157 c2 -6 8 -11 13 -11 6 0 7 5 3 12 -4 7
-3 8 5 4 6 -4 8 -12 5 -18 -5 -7 -1 -9 9 -5 13 5 32 -15 24 -26 -1 -2 6 -11
15 -20 18 -19 15 -66 -5 -79 -9 -6 -8 -8 2 -8 20 0 -56 -66 -77 -68 -38 -2
-82 9 -76 20 5 8 1 9 -10 5 -9 -4 -14 -3 -11 2 3 5 -4 12 -15 16 -11 3 -20 12
-21 18 0 7 -2 24 -4 40 -2 15 0 25 4 23 5 -3 16 1 26 8 20 15 12 38 -10 29 -8
-3 -15 0 -15 7 0 6 5 8 10 5 6 -3 10 1 10 9 0 9 5 16 11 16 5 0 8 4 5 9 -4 5
4 7 16 3 13 -3 19 -1 15 5 -7 11 77 -30 100 -48 11 -9 17 -9 26 0 9 10 9 11
-4 6 -9 -3 -22 1 -29 10 -7 8 -19 15 -26 15 -8 0 -13 6 -11 13 1 7 -7 11 -20
10 -13 -2 -23 1 -23 6 0 13 53 6 58 -8z m-118 -81 c-8 -5 -18 -6 -24 -3 -5 4
-1 10 10 13 24 9 34 2 14 -10z m-130 -344 c0 -3 -4 -8 -10 -11 -5 -3 -10 -1
-10 4 0 6 5 11 10 11 6 0 10 -2 10 -4z m-608 -452 c65 -46 87 -102 76 -199 -1
-8 -5 -12 -10 -9 -5 4 -8 -2 -6 -12 2 -12 -2 -18 -11 -16 -8 2 -11 -3 -8 -12
3 -8 -2 -20 -11 -28 -13 -11 -15 -11 -8 2 4 8 -2 3 -14 -12 -12 -16 -27 -25
-35 -21 -8 3 -15 1 -15 -5 0 -6 -8 -9 -17 -7 -10 2 -18 4 -18 5 0 1 -8 3 -18
5 -9 2 -15 -1 -12 -6 4 -5 -9 -8 -27 -6 -26 2 -32 7 -30 22 3 16 1 18 -9 8
-17 -17 -34 -17 -21 0 8 10 5 16 -11 27 -21 12 -21 12 -7 -5 14 -17 14 -18 -8
-6 -23 12 -23 13 -6 32 16 18 15 23 -3 17 -5 -2 -7 -6 -6 -10 2 -4 -4 -5 -13
-1 -13 5 -13 7 1 23 12 13 13 20 5 25 -6 4 -14 4 -17 1 -4 -3 -1 -6 6 -6 7 0
9 -5 6 -10 -9 -15 -27 -1 -21 16 3 8 1 14 -4 14 -14 0 -8 23 10 36 12 10 12
14 1 28 -10 11 -10 16 -2 16 7 0 9 4 6 10 -14 22 84 118 107 104 4 -3 8 -1 8
3 0 5 23 8 51 7 38 -1 60 -8 91 -30z m1111 -37 c4 3 7 1 7 -6 0 -7 4 -10 9 -7
4 3 17 -4 27 -16 11 -12 14 -18 7 -15 -6 4 -14 3 -18 -3 -4 -6 -12 -8 -18 -4
-7 3 0 -5 15 -18 19 -16 25 -27 18 -38 -5 -8 -6 -18 -4 -22 3 -4 0 -8 -7 -8
-7 0 -10 -2 -7 -5 3 -3 12 -3 21 1 20 7 16 53 -7 70 -10 6 -13 14 -9 17 17 11
33 -10 39 -50 4 -31 2 -42 -10 -46 -9 -4 -16 -12 -16 -19 0 -9 3 -8 10 2 5 8
10 10 10 4 0 -7 -15 -23 -32 -36 -38 -29 -113 -34 -113 -8 0 8 -7 21 -15 28
-13 12 -13 13 1 9 9 -3 16 1 16 9 0 12 -5 11 -24 -2 -26 -16 -53 -13 -53 7 0
9 4 9 14 0 11 -9 16 -9 22 0 4 7 3 10 -2 7 -5 -3 -15 0 -22 8 -7 8 -9 14 -5
14 4 0 2 4 -6 9 -11 7 -9 17 7 53 22 51 30 58 75 65 18 3 34 7 36 9 2 2 9 -1
16 -6 7 -5 15 -7 18 -3z m-1373 -87 c0 -5 -5 -10 -11 -10 -5 0 -7 5 -4 10 3 6
8 10 11 10 2 0 4 -4 4 -10z m520 -100 c8 -15 8 -20 -3 -20 -7 0 -13 9 -14 20
-1 11 0 20 2 20 2 0 9 -9 15 -20z m85 10 c3 -5 1 -10 -4 -10 -6 0 -11 5 -11
10 0 6 2 10 4 10 3 0 8 -4 11 -10z m35 0 c0 -5 -4 -10 -10 -10 -5 0 -10 5 -10
10 0 6 5 10 10 10 6 0 10 -4 10 -10z m640 -26 c0 -12 -4 -12 -20 -2 -13 8 -16
15 -8 19 15 10 28 2 28 -17z m-160 -723 c0 -6 -9 -8 -19 -6 -14 3 -18 -1 -14
-12 4 -10 8 -11 13 -3 4 6 10 11 14 11 20 -3 26 0 20 12 -4 6 0 5 9 -3 18 -16
12 -65 -6 -53 -6 3 -7 1 -3 -6 9 -14 26 -5 26 14 0 8 5 17 12 21 11 7 9 -10
-7 -48 -4 -11 -3 -18 5 -18 6 0 8 5 5 10 -3 6 -1 10 5 10 6 0 8 5 5 10 -3 6
-1 10 5 10 7 0 10 -7 7 -15 -4 -8 -2 -17 3 -20 11 -7 5 -42 -11 -61 -6 -8 -8
-14 -3 -14 5 0 1 -5 -9 -11 -9 -6 -15 -15 -11 -20 3 -5 2 -8 -3 -7 -4 1 -17
-2 -28 -8 -28 -15 -86 -12 -111 6 -22 16 -61 70 -50 70 4 0 2 9 -4 20 -9 17
-7 19 20 15 27 -3 29 -2 19 17 -10 18 -8 19 11 13 21 -7 22 -6 3 12 -10 11
-20 14 -22 8 -2 -5 -9 -13 -15 -17 -8 -5 -7 -8 2 -8 6 0 12 -4 12 -10 0 -15
-17 -12 -23 4 -3 8 5 26 18 40 12 13 20 28 17 31 -4 3 1 3 11 -1 10 -3 17 -1
17 5 0 6 17 11 40 11 22 0 40 -4 40 -9z"/>
<path d="M3266 2931 c-3 -5 2 -15 12 -22 15 -13 16 -12 4 3 -10 13 -10 17 0
21 9 4 9 6 1 6 -6 1 -14 -3 -17 -8z"/>
<path d="M3301 2924 c0 -11 3 -14 6 -6 3 7 2 16 -1 19 -3 4 -6 -2 -5 -13z"/>
<path d="M3360 2895 c-9 -11 -10 -19 -3 -26 8 -8 11 -6 10 7 -1 11 4 18 11 16
8 -1 11 2 7 8 -8 13 -10 13 -25 -5z"/>
<path d="M3402 2881 c-9 -5 -2 -8 20 -9 23 -1 28 2 18 8 -18 12 -22 12 -38 1z"/>
<path d="M3274 2856 c1 -8 5 -18 8 -22 4 -3 5 1 4 10 -1 8 -5 18 -8 22 -4 3
-5 -1 -4 -10z"/>
<path d="M3245 2850 c-3 -5 -3 -10 2 -10 4 0 1 -5 -7 -10 -12 -7 -10 -9 7 -7
15 1 19 5 13 13 -6 6 -7 14 -3 17 3 4 4 7 0 7 -3 0 -9 -4 -12 -10z"/>
<path d="M3399 2858 c-5 -18 -6 -38 -1 -34 7 8 12 36 6 36 -2 0 -4 -1 -5 -2z"/>
<path d="M3433 2853 c-15 -5 -17 -23 -4 -23 5 0 11 7 15 15 3 8 4 15 3 14 -1
0 -8 -3 -14 -6z"/>
<path d="M3275 2809 c-4 -6 -5 -12 -2 -15 2 -3 7 2 10 11 7 17 1 20 -8 4z"/>
<path d="M3411 2809 c-1 -9 -8 -22 -16 -29 -12 -10 -18 -10 -32 1 -15 13 -15
12 -2 -8 l14 -23 24 24 c13 13 21 30 18 37 -4 10 -6 10 -6 -2z"/>
<path d="M3245 2800 c3 -5 8 -10 11 -10 2 0 4 5 4 10 0 6 -5 10 -11 10 -5 0
-7 -4 -4 -10z"/>
<path d="M3380 2800 c-9 -6 -10 -10 -3 -10 6 0 15 5 18 10 8 12 4 12 -15 0z"/>
<path d="M3318 2783 c7 -3 16 -2 19 1 4 3 -2 6 -13 5 -11 0 -14 -3 -6 -6z"/>
<path d="M3305 2760 c3 -4 16 -7 30 -7 13 0 23 3 20 7 -3 4 -16 8 -30 8 -13 0
-23 -4 -20 -8z"/>
<path d="M2444 2099 c-12 -20 12 -31 27 -12 13 17 13 17 -5 3 -18 -14 -19 -13
-13 3 7 19 2 23 -9 6z"/>
<path d="M2343 2087 c-3 -5 -2 -11 1 -14 3 -4 6 -1 6 7 0 10 4 10 17 -1 9 -8
14 -9 10 -2 -4 6 -1 13 5 16 7 3 3 4 -10 4 -13 -1 -26 -5 -29 -10z"/>
<path d="M2396 2083 c-4 -9 -4 -14 0 -10 4 4 14 1 23 -6 14 -11 15 -10 1 8 -8
11 -15 21 -16 23 -1 2 -5 -5 -8 -15z"/>
<path d="M2480 2075 c-7 -9 -11 -17 -9 -20 3 -2 10 5 17 15 14 24 10 26 -8 5z"/>
<path d="M2320 2071 c0 -7 -4 -9 -10 -6 -5 3 -10 1 -10 -4 0 -6 4 -11 9 -11
13 0 25 20 17 27 -3 4 -6 1 -6 -6z"/>
<path d="M2494 2058 c-5 -7 -2 -9 8 -5 20 7 38 -11 31 -32 -5 -12 -3 -13 6 -5
10 9 10 16 -1 33 -14 23 -33 27 -44 9z"/>
<path d="M2287 2039 c7 -7 15 -10 18 -7 3 3 -2 9 -12 12 -14 6 -15 5 -6 -5z"/>
<path d="M2324 2038 c-3 -4 5 -5 17 -3 30 6 36 14 9 12 -12 -1 -24 -5 -26 -9z"/>
<path d="M2264 2019 c-4 -7 -3 -9 4 -5 5 3 13 0 15 -6 4 -9 6 -10 6 -1 1 17
-16 25 -25 12z"/>
<path d="M2557 2013 c-10 -9 -9 -23 1 -23 5 0 9 7 9 15 0 17 -1 18 -10 8z"/>
<path d="M2274 1966 c0 -13 4 -22 8 -20 9 6 6 44 -3 44 -4 0 -6 -11 -5 -24z"/>
<path d="M2570 1971 c0 -6 4 -13 10 -16 6 -3 7 1 4 9 -7 18 -14 21 -14 7z"/>
<path d="M2250 1920 c0 -5 5 -10 10 -10 6 0 10 5 10 10 0 6 -4 10 -10 10 -5 0
-10 -4 -10 -10z"/>
<path d="M2574 1915 c-4 -8 -10 -12 -15 -9 -5 3 -9 2 -8 -3 5 -21 -14 -40 -37
-37 -13 1 -22 -1 -19 -5 10 -18 47 -2 70 29 26 35 28 40 20 40 -3 0 -8 -7 -11
-15z"/>
<path d="M2335 1831 c-3 -5 -2 -12 3 -15 5 -3 9 1 9 9 0 17 -3 19 -12 6z"/>
<path d="M2510 1836 c0 -2 9 -6 20 -9 11 -3 18 -1 14 4 -5 9 -34 13 -34 5z"/>
<path d="M2387 1798 c-7 -4 3 -6 21 -4 18 2 35 6 38 9 8 8 -46 3 -59 -5z"/>
<path d="M2460 1806 c0 -3 9 -10 19 -16 15 -7 22 -7 27 2 4 7 4 10 -1 6 -4 -4
-16 -3 -26 3 -11 5 -19 7 -19 5z"/>
<path d="M2355 1780 c-3 -5 -1 -10 4 -10 6 0 11 5 11 10 0 6 -2 10 -4 10 -3 0
-8 -4 -11 -10z"/>
<path d="M3590 2041 c0 -8 -8 -10 -22 -6 -23 7 -23 7 -3 -8 18 -14 21 -14 28
0 5 8 6 17 3 20 -3 4 -6 1 -6 -6z"/>
<path d="M3510 2018 c-11 -12 -19 -22 -17 -23 1 0 11 -7 22 -15 18 -14 19 -14
7 2 -12 15 -12 20 2 33 9 9 16 18 16 21 0 9 -10 3 -30 -18z"/>
<path d="M3615 2019 c7 -11 35 -12 35 -1 0 4 -9 8 -20 9 -11 1 -18 -2 -15 -8z"/>
<path d="M3537 2007 c-3 -8 -2 -20 3 -26 5 -9 8 -4 8 13 0 29 -3 32 -11 13z"/>
<path d="M3610 1980 c0 -5 5 -10 11 -10 5 0 7 5 4 10 -3 6 -8 10 -11 10 -2 0
-4 -4 -4 -10z"/>
<path d="M3480 1977 c0 -3 12 -12 26 -22 15 -9 23 -12 20 -6 -7 11 -46 35 -46
28z"/>
<path d="M3635 1950 c-4 -6 -11 -7 -17 -4 -7 4 -8 2 -4 -5 6 -9 12 -9 24 1 10
7 19 14 21 15 2 2 -1 3 -7 3 -6 0 -14 -5 -17 -10z"/>
<path d="M3480 1940 c20 -13 33 -13 25 0 -3 6 -14 10 -23 10 -15 0 -15 -2 -2
-10z"/>
<path d="M3510 1920 c-12 -7 -10 -9 7 -7 12 0 19 5 17 9 -6 10 -6 10 -24 -2z"/>
<path d="M3627 1899 c7 -9 9 -20 5 -24 -4 -5 -1 -5 6 -1 6 4 12 3 12 -2 0 -17
-13 -22 -28 -9 -13 10 -14 9 -7 -2 6 -11 4 -13 -9 -8 -10 4 -27 0 -39 -8 -12
-8 -16 -15 -10 -15 7 0 15 5 18 10 3 6 11 10 16 10 6 0 8 -4 5 -8 -9 -15 29
-9 51 8 22 17 21 26 -12 50 -18 14 -19 13 -8 -1z"/>
<path d="M3595 1889 c-4 -6 -5 -12 -2 -15 2 -3 7 2 10 11 7 17 1 20 -8 4z"/>
<path d="M3565 1879 c-4 -6 -5 -12 -2 -15 2 -3 7 2 10 11 7 17 1 20 -8 4z"/>
<path d="M3290 1105 c-14 -8 -20 -14 -14 -15 5 0 19 7 30 15 24 18 16 19 -16
0z"/>
<path d="M3371 1090 c-13 -11 -19 -20 -14 -20 6 0 18 9 28 20 23 25 17 25 -14
0z"/>
<path d="M3310 1090 c-9 -6 -10 -10 -3 -10 6 0 15 5 18 10 8 12 4 12 -15 0z"/>
<path d="M3359 1058 c-5 -18 -6 -38 -1 -34 7 8 12 36 6 36 -2 0 -4 -1 -5 -2z"/>
<path d="M3286 1022 c-3 -5 1 -9 9 -9 8 0 12 4 9 9 -3 4 -7 8 -9 8 -2 0 -6 -4
-9 -8z"/>
<path d="M3394 1010 c0 -13 4 -16 10 -10 7 7 7 13 0 20 -6 6 -10 3 -10 -10z"/>
<path d="M3419 995 c-18 -31 -24 -34 -38 -23 -14 11 -14 11 -4 -2 11 -14 13
-21 13 -37 0 -10 25 16 26 28 1 5 2 14 3 20 0 5 5 7 11 4 6 -4 7 1 3 11 -4 10
-2 15 4 11 5 -3 10 0 10 8 0 22 -6 18 -28 -20z"/>
<path d="M3236 986 c5 -27 20 -40 29 -25 5 7 4 10 -2 6 -6 -4 -13 0 -17 8 -3
8 3 19 12 24 15 9 14 10 -5 8 -15 -1 -20 -6 -17 -21z"/>
<path d="M3296 987 c3 -10 9 -15 12 -12 3 3 0 11 -7 18 -10 9 -11 8 -5 -6z"/>
<path d="M3260 986 c0 -2 7 -7 16 -10 8 -3 12 -2 9 4 -6 10 -25 14 -25 6z"/>
<path d="M3335 983 c3 -3 -3 -16 -12 -27 -15 -17 -15 -18 -1 -8 13 10 17 10
21 0 3 -7 5 -3 3 9 -1 12 -5 25 -9 28 -4 3 -5 2 -2 -2z"/>
<path d="M3275 951 c-4 -7 -2 -18 4 -24 14 -14 61 -18 61 -5 0 5 -6 8 -14 6
-8 -2 -21 6 -29 16 -10 14 -16 16 -22 7z m19 -17 c3 -8 2 -12 -4 -9 -6 3 -10
10 -10 16 0 14 7 11 14 -7z"/>
<path d="M3357 936 c-3 -8 -2 -18 3 -21 13 -8 20 9 11 24 -6 10 -10 9 -14 -3z"/>
<path d="M3413 3115 c0 -8 4 -12 9 -9 5 3 6 10 3 15 -9 13 -12 11 -12 -6z"/>
<path d="M3135 3060 c-3 -5 -1 -10 4 -10 6 0 11 5 11 10 0 6 -2 10 -4 10 -3 0
-8 -4 -11 -10z"/>
<path d="M3535 3061 c-3 -5 -2 -12 3 -15 5 -3 9 1 9 9 0 17 -3 19 -12 6z"/>
<path d="M2377 3049 c7 -7 15 -10 18 -7 3 3 -2 9 -12 12 -14 6 -15 5 -6 -5z"/>
<path d="M2995 3040 c-3 -5 -1 -10 4 -10 6 0 11 5 11 10 0 6 -2 10 -4 10 -3 0
-8 -4 -11 -10z"/>
<path d="M815 3020 c-2 -3 9 -6 25 -5 15 0 26 3 24 7 -5 8 -44 6 -49 -2z"/>
<path d="M1036 3022 c-2 -4 4 -8 14 -8 10 0 16 4 14 8 -3 4 -9 8 -14 8 -5 0
-11 -4 -14 -8z"/>
<path d="M1156 3022 c-2 -4 4 -8 14 -8 10 0 16 4 14 8 -3 4 -9 8 -14 8 -5 0
-11 -4 -14 -8z"/>
<path d="M2470 3022 c0 -4 9 -8 19 -8 11 0 17 4 15 8 -3 4 -12 8 -20 8 -8 0
-14 -4 -14 -8z"/>
<path d="M2596 3022 c-2 -4 4 -8 14 -8 10 0 16 4 14 8 -3 4 -9 8 -14 8 -5 0
-11 -4 -14 -8z"/>
<path d="M2716 3007 c3 -10 9 -15 12 -12 3 3 0 11 -7 18 -10 9 -11 8 -5 -6z"/>
<path d="M2987 2959 c7 -7 15 -10 18 -7 3 3 -2 9 -12 12 -14 6 -15 5 -6 -5z"/>
<path d="M3055 2939 c-3 -4 2 -6 10 -5 21 3 28 13 10 13 -9 0 -18 -4 -20 -8z"/>
<path d="M3002 2898 c-7 -7 -12 -17 -12 -22 0 -6 5 -3 11 7 6 9 15 14 21 11 7
-4 8 -2 4 4 -9 15 -9 15 -24 0z"/>
<path d="M2815 2860 c3 -5 8 -10 11 -10 2 0 4 5 4 10 0 6 -5 10 -11 10 -5 0
-7 -4 -4 -10z"/>
<path d="M3600 2839 c0 -5 5 -7 10 -4 6 3 10 8 10 11 0 2 -4 4 -10 4 -5 0 -10
-5 -10 -11z"/>
<path d="M3029 2803 c-13 -16 -12 -17 4 -4 16 13 21 21 13 21 -2 0 -10 -8 -17
-17z"/>
<path d="M3596 2799 c2 -4 -2 -10 -8 -12 -8 -4 -9 -6 -2 -6 6 -1 17 5 23 12 8
10 7 14 -4 14 -8 0 -12 -4 -9 -8z"/>
<path d="M2815 2780 c3 -5 8 -10 11 -10 2 0 4 5 4 10 0 6 -5 10 -11 10 -5 0
-7 -4 -4 -10z"/>
<path d="M3590 2766 c0 -2 7 -7 16 -10 8 -3 12 -2 9 4 -6 10 -25 14 -25 6z"/>
<path d="M2996 2733 c-6 -14 -5 -15 5 -6 7 7 10 15 7 18 -3 3 -9 -2 -12 -12z"/>
<path d="M3070 2735 c0 -7 30 -13 34 -7 3 4 -4 9 -15 9 -10 1 -19 0 -19 -2z"/>
<path d="M3550 2700 c0 -5 9 -8 20 -7 21 1 18 10 -5 13 -8 1 -15 -2 -15 -6z"/>
<path d="M2937 2645 c-4 -8 -3 -16 1 -19 4 -3 9 4 9 15 2 23 -3 25 -10 4z"/>
<path d="M2875 2640 c-3 -5 -1 -10 4 -10 6 0 11 5 11 10 0 6 -2 10 -4 10 -3 0
-8 -4 -11 -10z"/>
<path d="M3222 2600 c7 -10 14 -18 15 -16 6 6 -9 36 -18 36 -5 0 -4 -9 3 -20z"/>
<path d="M2906 2557 c3 -10 9 -15 12 -12 3 3 0 11 -7 18 -10 9 -11 8 -5 -6z"/>
<path d="M3147 2551 c-3 -13 0 -18 7 -15 7 3 13 11 13 19 0 22 -14 18 -20 -4z"/>
<path d="M2855 2500 c3 -5 8 -10 11 -10 2 0 4 5 4 10 0 6 -5 10 -11 10 -5 0
-7 -4 -4 -10z"/>
<path d="M2787 2479 c7 -7 15 -10 18 -7 3 3 -2 9 -12 12 -14 6 -15 5 -6 -5z"/>
<path d="M2775 2431 c-3 -5 0 -13 6 -17 7 -4 9 -3 5 4 -3 5 0 13 6 15 9 4 10
6 1 6 -6 1 -14 -3 -18 -8z"/>
<path d="M2700 2360 c0 -5 5 -10 11 -10 5 0 7 5 4 10 -3 6 -8 10 -11 10 -2 0
-4 -4 -4 -10z"/>
<path d="M2930 2346 c0 -2 7 -7 16 -10 8 -3 12 -2 9 4 -6 10 -25 14 -25 6z"/>
<path d="M2686 2323 c-6 -14 -5 -15 5 -6 7 7 10 15 7 18 -3 3 -9 -2 -12 -12z"/>
<path d="M2915 2320 c3 -5 8 -10 11 -10 2 0 4 5 4 10 0 6 -5 10 -11 10 -5 0
-7 -4 -4 -10z"/>
<path d="M2959 2313 c-13 -16 -12 -17 4 -4 16 13 21 21 13 21 -2 0 -10 -8 -17
-17z"/>
<path d="M897 2304 c-3 -3 -4 -11 -1 -17 2 -7 -6 -13 -21 -13 -14 -1 -25 3
-25 10 0 6 -5 4 -10 -4 -9 -13 -10 -13 -10 0 0 13 -1 13 -10 0 -8 -13 -10 -13
-10 0 0 11 -3 11 -12 2 -16 -16 -31 -15 -22 1 5 9 4 9 -5 1 -7 -6 -13 -21 -14
-33 -1 -11 -8 -21 -17 -22 -10 0 -9 -3 5 -9 11 -5 14 -9 8 -9 -9 -1 -10 -8 -4
-23 4 -13 7 -31 5 -42 -2 -14 0 -16 9 -7 14 14 30 14 21 0 -5 -8 -2 -9 12 -1
11 6 27 7 42 1 15 -6 21 -5 17 1 -3 6 -1 10 4 10 6 0 11 -5 11 -11 0 -8 4 -8
13 -1 13 10 109 8 128 -4 8 -4 9 -3 5 4 -11 19 5 14 21 -5 7 -10 13 -13 12 -8
-3 21 2 24 27 15 16 -7 23 -7 19 0 -3 6 -1 10 4 10 6 0 11 -4 11 -10 0 -5 5
-10 11 -10 5 0 7 6 3 13 -5 8 -2 8 9 -2 9 -7 17 -9 17 -3 0 11 83 8 102 -4 7
-4 8 -3 4 4 -4 7 -2 12 3 12 6 0 11 -5 11 -11 0 -8 6 -7 17 2 13 11 17 11 21
1 3 -10 7 -10 20 0 12 11 16 11 20 0 3 -10 7 -10 19 -1 12 10 16 10 23 -1 5
-8 6 -18 3 -24 -3 -5 -1 -6 6 -2 6 4 9 11 6 16 -3 4 2 10 10 14 8 3 15 0 15
-6 0 -7 6 -6 16 3 13 10 17 10 24 -1 5 -8 6 -18 3 -24 -3 -5 -1 -6 6 -2 6 4 9
11 6 16 -3 4 2 10 10 14 8 3 15 0 15 -6 0 -7 5 -6 15 2 17 14 17 14 34 -15 11
-19 12 -18 5 4 -4 15 -2 21 4 17 6 -3 21 -2 35 3 23 9 24 13 17 51 -6 35 -5
40 8 35 12 -4 12 -2 4 8 -7 8 -9 17 -5 20 3 4 -6 7 -21 7 -15 0 -25 4 -22 8 3
5 -1 9 -9 9 -8 0 -12 -4 -9 -9 3 -4 1 -8 -5 -8 -5 0 -12 6 -14 13 -4 10 -6 10
-6 0 -1 -7 -6 -13 -12 -13 -6 0 -9 7 -6 15 4 8 2 17 -4 20 -5 4 -9 3 -8 -2 4
-22 -3 -32 -21 -30 -19 1 -24 10 -21 30 1 5 -3 6 -8 2 -6 -3 -8 -11 -5 -18 2
-7 -6 -13 -21 -13 -15 -1 -25 3 -25 11 0 8 -4 16 -9 19 -5 4 -7 -4 -4 -16 4
-19 3 -20 -6 -8 -7 10 -11 11 -11 3 0 -7 -5 -13 -11 -13 -6 0 -9 7 -6 15 4 8
2 17 -4 20 -5 4 -9 3 -8 -2 4 -22 -3 -32 -21 -30 -19 1 -24 10 -21 30 1 5 -3
6 -8 2 -6 -3 -8 -11 -5 -18 3 -8 -6 -13 -26 -13 -16 -1 -27 2 -24 7 3 5 0 9
-5 9 -6 0 -11 -4 -11 -9 0 -15 -43 -9 -65 8 -18 15 -19 15 -6 -2 12 -15 11
-17 -5 -14 -11 1 -25 6 -31 10 -7 5 -13 4 -13 -1 0 -5 -19 -8 -42 -7 -29 1
-42 6 -40 14 1 7 -2 10 -8 6 -6 -3 -8 -10 -5 -14 2 -5 -7 -8 -20 -8 -14 0 -25
3 -25 8 0 5 -5 9 -11 9 -5 0 -8 -4 -5 -9 3 -5 -6 -8 -19 -8 -23 0 -30 8 -26
30 1 9 -4 9 -12 1z"/>
<path d="M2615 2300 c-3 -5 -1 -10 4 -10 6 0 11 5 11 10 0 6 -2 10 -4 10 -3 0
-8 -4 -11 -10z"/>
<path d="M2655 2300 c3 -5 8 -10 11 -10 2 0 4 5 4 10 0 6 -5 10 -11 10 -5 0
-7 -4 -4 -10z"/>
<path d="M2895 2300 c3 -5 8 -10 11 -10 2 0 4 5 4 10 0 6 -5 10 -11 10 -5 0
-7 -4 -4 -10z"/>
<path d="M2394 2280 c0 -13 4 -16 10 -10 7 7 7 13 0 20 -6 6 -10 3 -10 -10z"/>
<path d="M2430 2286 c0 -2 7 -7 16 -10 8 -3 12 -2 9 4 -6 10 -25 14 -25 6z"/>
<path d="M2470 2281 c0 -6 4 -13 10 -16 6 -3 7 1 4 9 -7 18 -14 21 -14 7z"/>
<path d="M2314 2266 c1 -8 5 -18 8 -22 4 -3 5 1 4 10 -1 8 -5 18 -8 22 -4 3
-5 -1 -4 -10z"/>
<path d="M2557 2273 c-10 -9 -9 -23 1 -23 5 0 9 7 9 15 0 17 -1 18 -10 8z"/>
<path d="M2826 2242 c-3 -5 1 -9 9 -9 8 0 12 4 9 9 -3 4 -7 8 -9 8 -2 0 -6 -4
-9 -8z"/>
<path d="M2810 2211 c0 -7 -4 -9 -10 -6 -5 3 -10 1 -10 -4 0 -6 4 -11 9 -11
13 0 25 20 17 27 -3 4 -6 1 -6 -6z"/>
<path d="M1640 2200 c-9 -6 -10 -10 -3 -10 6 0 15 5 18 10 8 12 4 12 -15 0z"/>
<path d="M3490 2196 c7 -7 13 -7 20 0 6 6 3 10 -10 10 -13 0 -16 -4 -10 -10z"/>
<path d="M3550 2200 c0 -5 5 -10 10 -10 6 0 10 5 10 10 0 6 -4 10 -10 10 -5 0
-10 -4 -10 -10z"/>
<path d="M2774 2182 c4 -7 1 -12 -8 -12 -9 0 -16 -4 -16 -8 0 -5 7 -9 15 -9
18 0 28 24 13 33 -7 4 -8 3 -4 -4z"/>
<path d="M3713 2175 c0 -8 4 -12 9 -9 5 3 6 10 3 15 -9 13 -12 11 -12 -6z"/>
<path d="M3741 2156 c-8 -10 -9 -16 -1 -21 6 -4 9 -1 8 7 -2 7 3 12 10 10 8
-1 11 2 7 8 -8 13 -10 13 -24 -4z"/>
<path d="M2725 2139 c-4 -6 -4 -13 -1 -16 3 -4 6 -1 6 6 0 7 5 9 12 5 7 -4 8
-3 4 4 -9 15 -13 15 -21 1z"/>
<path d="M897 2123 c3 -7 6 -13 8 -13 1 0 7 6 13 13 8 10 6 13 -7 13 -11 0
-17 -6 -14 -13z"/>
<path d="M1190 2130 c0 -5 5 -10 11 -10 5 0 7 5 4 10 -3 6 -8 10 -11 10 -2 0
-4 -4 -4 -10z"/>
<path d="M3352 2107 c-8 -10 -6 -13 11 -14 12 0 16 1 9 4 -6 3 -10 9 -6 14 8
14 -2 11 -14 -4z"/>
<path d="M2721 2093 c7 -10 14 -19 15 -21 1 -2 4 4 8 13 3 9 2 13 -4 10 -6 -3
-10 -1 -10 4 0 6 -5 11 -11 11 -8 0 -7 -6 2 -17z"/>
<path d="M2799 2093 c-13 -16 -12 -17 4 -4 16 13 21 21 13 21 -2 0 -10 -8 -17
-17z"/>
<path d="M2757 2083 c-11 -11 -8 -21 9 -27 13 -5 14 -4 6 7 -7 8 -9 17 -5 20
3 4 4 7 1 7 -2 0 -8 -3 -11 -7z"/>
<path d="M3115 2071 c-3 -5 -2 -12 3 -15 5 -3 9 1 9 9 0 17 -3 19 -12 6z"/>
<path d="M3327 2064 c-3 -3 -3 -13 0 -22 4 -10 2 -13 -5 -8 -7 4 -12 3 -12 -3
0 -21 18 -19 28 4 10 22 3 42 -11 29z"/>
<path d="M2719 2051 c7 -5 11 -13 7 -19 -3 -6 -1 -14 5 -18 6 -3 15 0 20 7 9
14 -14 39 -35 39 -6 0 -5 -4 3 -9z"/>
<path d="M2795 2051 c-3 -5 -2 -12 3 -15 5 -3 9 1 9 9 0 17 -3 19 -12 6z"/>
<path d="M2956 2042 c-3 -5 1 -9 9 -9 8 0 12 4 9 9 -3 4 -7 8 -9 8 -2 0 -6 -4
-9 -8z"/>
<path d="M3017 2035 c-4 -8 -3 -16 1 -19 4 -3 9 4 9 15 2 23 -3 25 -10 4z"/>
<path d="M3177 2035 c-4 -8 -3 -16 1 -19 4 -3 9 4 9 15 2 23 -3 25 -10 4z"/>
<path d="M3826 2042 c-3 -5 1 -9 9 -9 8 0 12 4 9 9 -3 4 -7 8 -9 8 -2 0 -6 -4
-9 -8z"/>
<path d="M2770 2036 c0 -2 8 -10 18 -17 15 -13 16 -12 3 4 -13 16 -21 21 -21
13z"/>
<path d="M3280 2029 c0 -5 -6 -7 -12 -3 -7 4 -9 3 -5 -1 13 -15 36 -14 30 1
-6 17 -13 18 -13 3z"/>
<path d="M876 2021 c-3 -5 1 -14 8 -20 10 -9 16 -9 21 -1 4 6 1 9 -7 8 -7 -2
-12 3 -10 10 2 14 -4 16 -12 3z"/>
<path d="M2815 2020 c-2 -3 5 -6 15 -7 11 -1 22 2 24 5 3 4 -4 8 -15 8 -11 0
-22 -3 -24 -6z"/>
<path d="M2895 2020 c3 -5 8 -10 11 -10 2 0 4 5 4 10 0 6 -5 10 -11 10 -5 0
-7 -4 -4 -10z"/>
<path d="M3050 2019 c0 -5 5 -7 10 -4 6 3 10 8 10 11 0 2 -4 4 -10 4 -5 0 -10
-5 -10 -11z"/>
<path d="M799 2015 c-1 -3 -2 -11 -3 -17 0 -7 -10 -13 -21 -13 -11 0 -21 -7
-21 -15 -1 -8 -2 -23 -3 -33 -1 -11 -6 -16 -13 -12 -7 4 -5 0 5 -8 18 -15 24
-32 7 -22 -13 8 0 -28 14 -37 6 -4 22 -4 35 -1 18 4 22 3 16 -7 -6 -10 -4 -11
6 -4 19 12 119 13 112 1 -4 -6 -1 -7 8 -1 24 15 123 11 137 -6 11 -13 11 -13
7 1 -5 13 5 15 67 15 53 0 76 -5 86 -16 11 -13 11 -13 7 1 -5 12 1 15 27 14
18 -1 42 -5 53 -9 14 -6 16 -5 7 2 -10 6 2 9 36 9 29 -1 48 -5 45 -11 -3 -5
-1 -6 6 -2 6 4 23 9 37 12 19 3 24 1 18 -8 -6 -10 -5 -10 7 -2 15 12 51 12 84
0 14 -6 16 -5 7 2 -10 6 2 9 36 9 28 -1 49 -4 46 -8 -2 -4 1 -11 7 -15 8 -4 9
-3 5 4 -4 7 -4 12 1 13 4 0 18 2 31 5 17 3 21 1 16 -8 -6 -10 -4 -10 7 -2 15
12 51 12 84 0 12 -5 15 -5 8 1 -8 5 15 9 59 11 57 1 74 -2 85 -16 12 -16 13
-16 6 2 -5 15 -3 18 10 13 14 -5 17 0 17 34 0 29 3 38 13 33 6 -4 3 3 -8 16
-17 20 -17 22 -3 17 10 -3 20 -1 24 5 4 6 3 8 -3 5 -6 -4 -16 -1 -22 7 -8 10
-59 13 -230 12 -177 -1 -217 1 -209 12 8 9 7 11 -6 6 -9 -3 -16 -9 -16 -13 0
-3 -20 -6 -44 -6 -24 0 -42 3 -39 8 2 4 -1 7 -6 7 -6 0 -11 -3 -11 -7 0 -13
-99 -6 -116 7 -12 10 -13 10 -9 -1 4 -11 -6 -14 -49 -13 -60 2 -80 9 -69 27 3
7 -3 4 -15 -6 -14 -13 -38 -19 -75 -20 -30 -1 -53 1 -50 6 2 4 -1 7 -6 7 -6 0
-11 -3 -11 -7 0 -5 -24 -8 -54 -8 -30 0 -52 4 -48 9 3 5 0 6 -7 2 -6 -4 -34
-9 -61 -10 -47 -3 -55 1 -51 27 1 8 -8 10 -10 2z"/>
<path d="M1009 2003 c-13 -16 -12 -17 4 -4 9 7 17 15 17 17 0 8 -8 3 -21 -13z"/>
<path d="M2069 2003 c-13 -17 -13 -17 6 -3 11 8 22 16 24 17 2 2 0 3 -6 3 -6
0 -17 -8 -24 -17z"/>
<path d="M1575 2000 c-3 -5 -1 -10 4 -10 6 0 11 5 11 10 0 6 -2 10 -4 10 -3 0
-8 -4 -11 -10z"/>
<path d="M1655 2000 c-3 -5 -1 -10 4 -10 6 0 11 5 11 10 0 6 -2 10 -4 10 -3 0
-8 -4 -11 -10z"/>
<path d="M1750 2000 c0 -5 5 -10 11 -10 5 0 7 5 4 10 -3 6 -8 10 -11 10 -2 0
-4 -4 -4 -10z"/>
<path d="M1850 1996 c7 -7 13 -7 20 0 6 6 3 10 -10 10 -13 0 -16 -4 -10 -10z"/>
<path d="M1895 2000 c-3 -5 -1 -10 4 -10 6 0 11 5 11 10 0 6 -2 10 -4 10 -3 0
-8 -4 -11 -10z"/>
<path d="M2085 1979 c-4 -6 -5 -12 -2 -15 2 -3 7 2 10 11 7 17 1 20 -8 4z"/>
<path d="M2055 1940 c3 -5 8 -10 11 -10 2 0 4 5 4 10 0 6 -5 10 -11 10 -5 0
-7 -4 -4 -10z"/>
<path d="M360 1880 c0 -5 5 -10 11 -10 5 0 7 5 4 10 -3 6 -8 10 -11 10 -2 0
-4 -4 -4 -10z"/>
<path d="M840 1846 c0 -2 7 -7 16 -10 8 -3 12 -2 9 4 -6 10 -25 14 -25 6z"/>
<path d="M970 1839 c0 -5 5 -7 10 -4 6 3 10 8 10 11 0 2 -4 4 -10 4 -5 0 -10
-5 -10 -11z"/>
<path d="M1016 1833 c-6 -14 -5 -15 5 -6 7 7 10 15 7 18 -3 3 -9 -2 -12 -12z"/>
<path d="M1130 1839 c0 -5 5 -7 10 -4 6 3 10 8 10 11 0 2 -4 4 -10 4 -5 0 -10
-5 -10 -11z"/>
<path d="M1176 1833 c-6 -14 -5 -15 5 -6 7 7 10 15 7 18 -3 3 -9 -2 -12 -12z"/>
<path d="M1355 1840 c-3 -5 -1 -10 4 -10 6 0 11 5 11 10 0 6 -2 10 -4 10 -3 0
-8 -4 -11 -10z"/>
<path d="M1595 1840 c-3 -5 -1 -10 4 -10 6 0 11 5 11 10 0 6 -2 10 -4 10 -3 0
-8 -4 -11 -10z"/>
<path d="M1835 1840 c-3 -5 -1 -10 4 -10 6 0 11 5 11 10 0 6 -2 10 -4 10 -3 0
-8 -4 -11 -10z"/>
<path d="M2101 1834 c0 -11 3 -14 6 -6 3 7 2 16 -1 19 -3 4 -6 -2 -5 -13z"/>
<path d="M3179 1833 c-13 -17 -13 -17 6 -3 11 8 22 16 24 17 2 2 0 3 -6 3 -6
0 -17 -8 -24 -17z"/>
<path d="M356 1773 c-6 -14 -5 -15 5 -6 7 7 10 15 7 18 -3 3 -9 -2 -12 -12z"/>
<path d="M2750 1780 c0 -5 5 -10 11 -10 5 0 7 5 4 10 -3 6 -8 10 -11 10 -2 0
-4 -4 -4 -10z"/>
<path d="M3790 1781 c0 -6 4 -12 8 -15 5 -3 9 1 9 9 0 8 -4 15 -9 15 -4 0 -8
-4 -8 -9z"/>
<path d="M2704 1769 c-9 -16 2 -22 21 -11 15 8 16 10 1 15 -8 3 -18 2 -22 -4z"/>
<path d="M2725 1740 c-3 -5 -2 -10 4 -10 5 0 13 5 16 10 3 6 2 10 -4 10 -5 0
-13 -4 -16 -10z"/>
<path d="M3770 1739 c0 -5 5 -7 10 -4 6 3 10 8 10 11 0 2 -4 4 -10 4 -5 0 -10
-5 -10 -11z"/>
<path d="M3413 1726 c0 -7 6 -13 14 -13 7 0 13 4 13 8 0 4 -6 9 -13 12 -8 3
-14 0 -14 -7z"/>
<path d="M2796 1718 c3 -5 10 -6 15 -3 13 9 11 12 -6 12 -8 0 -12 -4 -9 -9z"/>
<path d="M3726 1722 c-2 -4 4 -8 14 -8 10 0 16 4 14 8 -3 4 -9 8 -14 8 -5 0
-11 -4 -14 -8z"/>
<path d="M2776 1702 c-3 -5 1 -9 9 -9 8 0 12 4 9 9 -3 4 -7 8 -9 8 -2 0 -6 -4
-9 -8z"/>
<path d="M835 1689 c-4 -6 -5 -12 -2 -15 2 -3 7 2 10 11 7 17 1 20 -8 4z"/>
<path d="M911 1687 c-6 -8 -8 -17 -4 -21 4 -3 -4 -5 -18 -2 -13 2 -23 10 -21
17 1 8 -4 7 -12 -4 -12 -16 -18 -17 -36 -7 -18 9 -21 9 -15 0 5 -9 2 -10 -12
-6 -18 6 -54 -19 -45 -31 8 -11 0 -33 -10 -28 -7 4 -5 0 5 -8 17 -14 25 -33
10 -24 -5 3 -8 -5 -8 -17 0 -19 5 -22 33 -21 26 2 32 -1 27 -14 -4 -14 -4 -14
7 -1 17 20 91 23 84 4 -3 -7 -1 -16 5 -19 5 -4 9 -3 8 2 -4 23 5 29 45 29 28
0 42 -4 38 -11 -3 -5 2 -4 11 4 14 11 17 11 17 0 0 -9 3 -10 8 -4 11 15 46 19
36 4 -4 -8 -3 -10 4 -5 6 4 26 9 43 11 23 3 29 0 25 -10 -3 -8 -1 -17 5 -20 5
-4 9 -3 8 2 -4 23 5 29 45 29 28 0 42 -4 38 -11 -3 -5 2 -4 11 4 14 11 17 11
17 0 0 -9 3 -10 8 -4 11 15 46 19 36 4 -4 -8 -3 -10 4 -5 6 4 26 9 43 11 23 3
29 0 25 -10 -3 -8 -1 -17 5 -20 5 -4 9 -3 8 2 -4 23 5 29 45 29 28 0 42 -4 38
-11 -3 -5 2 -4 11 4 14 11 17 11 17 0 0 -9 3 -10 8 -4 11 15 46 19 36 4 -4 -8
-3 -10 4 -5 6 4 26 9 43 11 23 3 29 0 25 -10 -3 -8 -1 -17 5 -20 5 -4 9 -3 8
2 -4 23 5 29 45 29 28 0 42 -4 38 -11 -3 -5 2 -4 11 4 14 11 17 11 17 0 0 -9
3 -10 8 -4 11 15 46 19 36 4 -4 -8 -3 -10 4 -5 6 4 26 9 43 11 23 3 29 0 25
-10 -3 -8 -1 -17 5 -20 5 -4 9 -3 8 2 -4 23 6 28 59 28 l57 0 1 65 c2 71 -2
85 -19 73 -21 -14 -62 -9 -59 7 2 11 -1 11 -11 -2 -8 -10 -17 -18 -20 -18 -3
0 -8 8 -10 18 -4 14 -5 14 -6 -3 -1 -17 -3 -18 -11 -5 -7 11 -10 11 -10 2 0
-7 -5 -10 -10 -7 -6 4 -8 12 -4 18 3 7 -1 4 -9 -5 -17 -22 -32 -11 -14 11 11
14 10 14 -5 2 -10 -7 -15 -18 -11 -23 3 -6 0 -8 -8 -6 -8 3 -13 12 -11 19 2
11 -1 10 -10 -1 -14 -17 -113 -22 -135 -7 -7 5 -13 4 -13 0 0 -5 -20 -9 -44
-9 -36 0 -43 3 -34 13 8 10 7 12 -6 7 -9 -3 -16 -10 -16 -15 0 -11 -23 -7 -32
6 -5 6 -8 5 -8 -2 0 -7 -5 -13 -11 -13 -5 0 -7 6 -3 13 5 8 2 8 -9 -2 -16 -13
-21 -9 -18 14 1 6 -5 2 -12 -7 -8 -10 -17 -15 -20 -11 -4 3 -1 13 6 22 11 14
10 14 -5 2 -10 -7 -15 -17 -12 -22 3 -5 -5 -7 -18 -5 -13 2 -22 10 -20 17 1 9
-3 8 -11 -3 -8 -10 -17 -15 -20 -11 -4 3 -1 13 6 22 11 14 10 14 -5 2 -10 -7
-15 -18 -11 -23 3 -6 0 -8 -8 -6 -8 3 -13 12 -11 19 2 11 -1 10 -10 -1 -14
-17 -113 -22 -135 -7 -7 5 -13 4 -13 0 0 -5 -20 -9 -44 -9 -36 0 -43 3 -34 13
8 10 7 12 -6 7 -9 -3 -16 -10 -16 -15 0 -11 -23 -7 -32 6 -5 6 -8 5 -8 -2 0
-7 -5 -13 -11 -13 -5 0 -7 6 -3 13 5 8 2 8 -9 -2 -16 -13 -21 -9 -18 14 1 6
-5 2 -12 -7 -8 -10 -17 -15 -20 -11 -4 3 -2 12 4 20 6 7 9 13 6 13 -2 0 -10
-6 -16 -13z"/>
<path d="M1089 1683 c-13 -16 -12 -17 4 -4 9 7 17 15 17 17 0 8 -8 3 -21 -13z"/>
<path d="M1569 1683 c-13 -16 -12 -17 4 -4 9 7 17 15 17 17 0 8 -8 3 -21 -13z"/>
<path d="M3470 1696 c0 -3 9 -10 20 -16 11 -6 20 -8 20 -6 0 3 -9 10 -20 16
-11 6 -20 8 -20 6z"/>
<path d="M1236 1678 c3 -5 10 -6 15 -3 13 9 11 12 -6 12 -8 0 -12 -4 -9 -9z"/>
<path d="M1716 1678 c3 -5 10 -6 15 -3 13 9 11 12 -6 12 -8 0 -12 -4 -9 -9z"/>
<path d="M2230 1671 c0 -5 5 -13 10 -16 6 -3 10 -2 10 4 0 5 -4 13 -10 16 -5
3 -10 2 -10 -4z"/>
<path d="M3553 1665 c0 -8 4 -12 9 -9 5 3 6 10 3 15 -9 13 -12 11 -12 -6z"/>
<path d="M2576 1661 c-4 -6 -2 -11 4 -11 6 0 8 -4 5 -10 -3 -5 -1 -10 4 -10
13 0 14 10 2 29 -6 9 -11 10 -15 2z"/>
<path d="M3588 1663 c7 -3 16 -2 19 1 4 3 -2 6 -13 5 -11 0 -14 -3 -6 -6z"/>
<path d="M2313 1615 c0 -8 4 -12 9 -9 4 3 8 9 8 15 0 5 -4 9 -8 9 -5 0 -9 -7
-9 -15z"/>
<path d="M2550 1620 c0 -5 5 -10 10 -10 6 0 10 5 10 10 0 6 -4 10 -10 10 -5 0
-10 -4 -10 -10z"/>
<path d="M2515 1610 c-4 -6 -11 -7 -17 -4 -7 4 -8 2 -4 -5 6 -9 11 -9 22 0 14
11 18 19 10 19 -3 0 -8 -5 -11 -10z"/>
<path d="M2595 1589 c-4 -6 -5 -12 -2 -15 2 -3 7 2 10 11 7 17 1 20 -8 4z"/>
<path d="M2635 1580 c-3 -5 -1 -10 4 -10 6 0 11 5 11 10 0 6 -2 10 -4 10 -3 0
-8 -4 -11 -10z"/>
<path d="M2675 1520 c-3 -5 -1 -10 4 -10 6 0 11 5 11 10 0 6 -2 10 -4 10 -3 0
-8 -4 -11 -10z"/>
<path d="M2950 1520 c0 -5 9 -8 20 -7 21 1 18 10 -5 13 -8 1 -15 -2 -15 -6z"/>
<path d="M2740 1496 c0 -2 7 -7 16 -10 8 -3 12 -2 9 4 -6 10 -25 14 -25 6z"/>
<path d="M2960 1498 c0 -3 6 -11 14 -17 10 -9 17 -7 27 6 12 16 12 17 -2 6
-12 -10 -18 -10 -27 -1 -7 7 -12 9 -12 6z"/>
<path d="M3069 1403 c-13 -16 -12 -17 4 -4 9 7 17 15 17 17 0 8 -8 3 -21 -13z"/>
<path d="M2829 1383 c-11 -15 -11 -16 1 -5 18 15 34 16 24 0 -4 -7 -3 -8 5 -4
12 8 6 26 -8 26 -5 0 -15 -8 -22 -17z"/>
<path d="M3153 1351 c0 -11 5 -18 9 -15 4 3 5 11 1 19 -7 21 -12 19 -10 -4z"/>
<path d="M3165 1319 c-4 -6 -5 -12 -2 -15 2 -3 7 2 10 11 7 17 1 20 -8 4z"/>
<path d="M3190 1290 c8 -5 20 -10 25 -10 6 0 3 5 -5 10 -8 5 -19 10 -25 10 -5
0 -3 -5 5 -10z"/>
<path d="M3237 1279 c4 -13 8 -18 11 -10 2 7 -1 18 -6 23 -8 8 -9 4 -5 -13z"/>
<path d="M2916 1282 c-3 -5 1 -9 9 -9 8 0 12 4 9 9 -3 4 -7 8 -9 8 -2 0 -6 -4
-9 -8z"/>
<path d="M2956 1267 c3 -10 9 -15 12 -12 3 3 0 11 -7 18 -10 9 -11 8 -5 -6z"/>
<path d="M3206 1262 c-3 -5 1 -9 9 -9 8 0 15 4 15 9 0 4 -4 8 -9 8 -6 0 -12
-4 -15 -8z"/>
<path d="M2934 1242 c0 -10 8 -18 18 -18 16 0 16 2 1 18 -9 10 -17 18 -17 18
-1 0 -2 -8 -2 -18z"/>
<path d="M2989 1239 c4 -11 11 -20 16 -19 5 1 13 -7 17 -17 7 -16 8 -16 5 2
-2 11 -9 19 -16 17 -8 -2 -11 3 -8 12 3 8 0 17 -8 20 -10 4 -12 0 -6 -15z"/>
<path d="M3495 1240 c-3 -5 -1 -10 4 -10 6 0 11 5 11 10 0 6 -2 10 -4 10 -3 0
-8 -4 -11 -10z"/>
<path d="M357 1223 c-5 -9 10 -53 17 -53 3 0 1 11 -4 24 -5 13 -6 27 -3 30 4
3 4 6 0 6 -3 0 -8 -3 -10 -7z"/>
<path d="M3526 1218 c3 -5 10 -6 15 -3 13 9 11 12 -6 12 -8 0 -12 -4 -9 -9z"/>
<path d="M3057 1156 c-4 -11 -1 -13 10 -9 12 5 14 3 8 -7 -5 -8 -4 -11 3 -6
12 7 5 36 -8 36 -4 0 -10 -7 -13 -14z"/>
<path d="M3555 1161 c-3 -5 -2 -12 3 -15 5 -3 9 1 9 9 0 17 -3 19 -12 6z"/>
<path d="M3095 1129 c-4 -6 -5 -12 -2 -15 2 -3 7 2 10 11 7 17 1 20 -8 4z"/>
<path d="M3024 1122 c4 -3 14 -7 22 -8 9 -1 13 0 10 4 -4 3 -14 7 -22 8 -9 1
-13 0 -10 -4z"/>
<path d="M1799 1103 c-1 -5 -1 -11 0 -15 0 -4 -14 -6 -33 -4 l-33 2 3 -52 c2
-45 0 -52 -13 -47 -11 4 -8 -2 6 -16 14 -14 30 -21 42 -18 12 3 19 0 19 -9 0
-8 4 -14 10 -14 5 0 7 6 5 13 -4 9 6 12 34 12 21 0 37 -3 35 -7 -2 -4 0 -9 6
-13 5 -3 10 0 10 7 0 10 10 13 35 10 19 -2 33 -7 30 -11 -2 -4 2 -8 9 -8 8 0
12 7 8 15 -4 11 -2 13 9 6 8 -4 25 -7 38 -5 13 1 21 -1 18 -6 -4 -6 0 -10 7
-10 8 0 12 7 8 15 -4 11 -2 13 9 6 8 -4 25 -7 38 -5 13 1 21 -1 18 -6 -4 -6 0
-10 7 -10 8 0 12 7 8 15 -4 11 1 11 22 -3 21 -14 25 -14 21 -3 -4 9 0 15 9 15
8 0 13 -4 11 -8 -3 -4 4 -5 15 -2 11 3 20 13 20 23 0 10 6 21 13 23 10 4 10 6
0 6 -19 1 -16 19 5 24 16 4 16 5 0 6 -21 1 -23 12 -5 30 10 11 10 13 0 7 -8
-4 -13 -1 -13 8 0 10 -6 13 -17 9 -10 -4 -14 -2 -9 5 3 6 1 14 -5 18 -8 4 -9
3 -5 -5 4 -6 0 -14 -9 -18 -10 -3 -21 0 -26 8 -5 8 -9 9 -9 3 0 -14 -162 -13
-172 1 -5 6 -8 6 -8 -1 0 -6 -25 -10 -64 -10 -41 0 -62 4 -59 11 3 5 0 5 -7
-2 -14 -13 -43 -6 -34 8 3 5 3 9 0 9 -3 0 -7 -3 -7 -7z"/>
<path d="M1930 1099 c0 -5 5 -7 10 -4 6 3 10 8 10 11 0 2 -4 4 -10 4 -5 0 -10
-5 -10 -11z"/>
<path d="M2070 1099 c0 -5 5 -7 10 -4 6 3 10 8 10 11 0 2 -4 4 -10 4 -5 0 -10
-5 -10 -11z"/>
<path d="M3055 1069 c-4 -6 -5 -12 -2 -15 2 -3 7 2 10 11 7 17 1 20 -8 4z"/>
<path d="M2990 1059 c0 -5 5 -7 10 -4 6 3 10 8 10 11 0 2 -4 4 -10 4 -5 0 -10
-5 -10 -11z"/>
<path d="M2815 1020 c3 -5 8 -10 11 -10 2 0 4 5 4 10 0 6 -5 10 -11 10 -5 0
-7 -4 -4 -10z"/>
<path d="M3590 1001 c0 -6 4 -13 10 -16 6 -3 7 1 4 9 -7 18 -14 21 -14 7z"/>
<path d="M3057 967 c-3 -8 1 -14 8 -14 7 0 11 6 8 14 -3 7 -6 13 -8 13 -2 0
-5 -6 -8 -13z"/>
<path d="M2985 960 c-3 -6 1 -7 9 -4 18 7 21 14 7 14 -6 0 -13 -4 -16 -10z"/>
<path d="M1820 946 c0 -2 8 -10 18 -17 15 -13 16 -12 3 4 -13 16 -21 21 -21
13z"/>
<path d="M3080 920 c-9 -6 -10 -10 -3 -10 6 0 15 5 18 10 8 12 4 12 -15 0z"/>
<path d="M1837 859 c7 -7 15 -10 18 -7 3 3 -2 9 -12 12 -14 6 -15 5 -6 -5z"/>
<path d="M1979 865 c-1 -3 -2 -9 -3 -14 -2 -14 -16 -26 -16 -13 0 10 -43 8
-61 -4 -4 -2 -9 2 -12 8 -3 10 -7 10 -17 1 -8 -8 -20 -9 -36 -3 -13 5 -24 6
-24 1 0 -4 -16 -7 -35 -4 -32 3 -35 1 -36 -24 -1 -16 -2 -41 -3 -58 -2 -40 8
-52 44 -49 16 1 30 -2 30 -7 0 -5 5 -9 11 -9 5 0 7 4 4 10 -4 6 5 9 19 8 15
-1 26 -7 26 -13 0 -5 5 -3 10 5 6 10 10 11 10 3 0 -7 5 -13 11 -13 5 0 7 5 4
10 -9 14 8 12 24 -2 8 -7 11 -8 8 -2 -5 8 12 11 56 10 39 -1 62 -6 62 -13 0
-6 3 -15 7 -19 4 -3 6 3 3 14 -3 18 1 21 21 20 13 -1 24 -7 24 -13 0 -5 5 -3
10 5 6 10 10 11 10 3 0 -7 5 -13 11 -13 5 0 8 4 5 9 -3 5 5 9 19 9 16 0 22 -5
18 -12 -4 -6 1 -5 10 3 9 7 23 11 31 8 11 -4 13 -1 9 10 -5 12 -3 14 8 8 12
-7 12 -6 1 7 -10 13 -10 17 0 21 10 4 10 6 1 6 -7 1 -13 6 -13 12 0 5 4 8 9 4
5 -3 13 -1 16 5 4 6 1 9 -6 8 -6 -2 -14 3 -16 10 -3 6 1 12 7 12 7 0 5 6 -4
16 -9 8 -21 12 -27 8 -8 -4 -9 -3 -5 4 4 7 2 12 -3 12 -6 0 -11 -4 -11 -8 0
-14 -41 -7 -51 9 -7 11 -9 10 -9 -6 0 -11 -4 -15 -8 -10 -4 6 -18 10 -32 10
-15 0 -24 5 -22 13 1 8 -2 11 -7 7 -6 -3 -7 -13 -4 -23 6 -15 5 -15 -10 -3 -9
7 -17 9 -17 4 0 -5 -9 -9 -19 -9 -11 0 -17 4 -15 8 3 4 0 8 -6 8 -6 0 -8 5 -5
10 3 6 4 10 1 10 -3 0 -7 -2 -7 -5z"/>
<path d="M2086 858 c3 -5 10 -6 15 -3 13 9 11 12 -6 12 -8 0 -12 -4 -9 -9z"/>
<path d="M3535 800 c-3 -5 -1 -10 4 -10 6 0 11 5 11 10 0 6 -2 10 -4 10 -3 0
-8 -4 -11 -10z"/>
<path d="M2815 780 c3 -5 8 -10 11 -10 2 0 4 5 4 10 0 6 -5 10 -11 10 -5 0 -7
-4 -4 -10z"/>
<path d="M3195 780 c3 -5 8 -10 11 -10 2 0 4 5 4 10 0 6 -5 10 -11 10 -5 0 -7
-4 -4 -10z"/>
<path d="M3245 760 c10 -11 20 -20 23 -20 3 0 -3 9 -13 20 -10 11 -20 20 -23
20 -3 0 3 -9 13 -20z"/>
<path d="M3370 739 c0 -5 5 -7 10 -4 6 3 10 8 10 11 0 2 -4 4 -10 4 -5 0 -10
-5 -10 -11z"/>
<path d="M1956 687 c3 -10 9 -15 12 -12 3 3 0 11 -7 18 -10 9 -11 8 -5 -6z"/>
<path d="M2980 626 c0 -2 8 -10 18 -17 15 -13 16 -12 3 4 -13 16 -21 21 -21
13z"/>
<path d="M2986 518 c3 -5 10 -6 15 -3 13 9 11 12 -6 12 -8 0 -12 -4 -9 -9z"/>
<path d="M1115 509 c-4 -6 -5 -12 -2 -15 2 -3 7 2 10 11 7 17 1 20 -8 4z"/>
<path d="M1990 501 c0 -6 4 -13 10 -16 6 -3 7 1 4 9 -7 18 -14 21 -14 7z"/>
<path d="M2710 501 c0 -6 4 -12 8 -15 5 -3 9 1 9 9 0 8 -4 15 -9 15 -4 0 -8
-4 -8 -9z"/>
<path d="M2925 399 c-3 -4 2 -6 10 -5 21 3 28 13 10 13 -9 0 -18 -4 -20 -8z"/>
<path d="M695 320 c3 -5 8 -10 11 -10 2 0 4 5 4 10 0 6 -5 10 -11 10 -5 0 -7
-4 -4 -10z"/>
<path d="M935 320 c3 -5 8 -10 11 -10 2 0 4 5 4 10 0 6 -5 10 -11 10 -5 0 -7
-4 -4 -10z"/>
<path d="M1175 320 c3 -5 8 -10 11 -10 2 0 4 5 4 10 0 6 -5 10 -11 10 -5 0 -7
-4 -4 -10z"/>
<path d="M1415 320 c3 -5 8 -10 11 -10 2 0 4 5 4 10 0 6 -5 10 -11 10 -5 0 -7
-4 -4 -10z"/>
<path d="M1655 320 c3 -5 8 -10 11 -10 2 0 4 5 4 10 0 6 -5 10 -11 10 -5 0 -7
-4 -4 -10z"/>
<path d="M1895 320 c3 -5 8 -10 11 -10 2 0 4 5 4 10 0 6 -5 10 -11 10 -5 0 -7
-4 -4 -10z"/>
<path d="M2135 320 c3 -5 8 -10 11 -10 2 0 4 5 4 10 0 6 -5 10 -11 10 -5 0 -7
-4 -4 -10z"/>
<path d="M2375 320 c3 -5 8 -10 11 -10 2 0 4 5 4 10 0 6 -5 10 -11 10 -5 0 -7
-4 -4 -10z"/>
<path d="M2710 319 c0 -5 5 -7 10 -4 6 3 10 8 10 11 0 2 -4 4 -10 4 -5 0 -10
-5 -10 -11z"/>
<path d="M2755 321 c-3 -5 -2 -12 3 -15 5 -3 9 1 9 9 0 17 -3 19 -12 6z"/>
</g>
</svg>
