<?xml version="1.0" encoding="UTF-8" standalone="no"?>
<svg
   xmlns:dc="http://purl.org/dc/elements/1.1/"
   xmlns:cc="http://creativecommons.org/ns#"
   xmlns:rdf="http://www.w3.org/1999/02/22-rdf-syntax-ns#"
   xmlns:svg="http://www.w3.org/2000/svg"
   xmlns="http://www.w3.org/2000/svg"
   xmlns:sodipodi="http://sodipodi.sourceforge.net/DTD/sodipodi-0.dtd"
   xmlns:inkscape="http://www.inkscape.org/namespaces/inkscape"
   width="80"
   height="80"
   viewBox="0 0 250 250"
   fill="#151513"
   style="position: absolute; top: 0; right: 0"
   version="1.1"
   id="svg8"
   sodipodi:docname="github-corner-right.svg"
   inkscape:version="0.92.3 (2405546, 2018-03-11)">
  <metadata
     id="metadata14">
    <rdf:RDF>
      <cc:Work
         rdf:about="">
        <dc:format>image/svg+xml</dc:format>
        <dc:type
           rdf:resource="http://purl.org/dc/dcmitype/StillImage" />
      </cc:Work>
    </rdf:RDF>
  </metadata>
  <defs
     id="defs12" />
  <sodipodi:namedview
     pagecolor="#ffffff"
     bordercolor="#666666"
     borderopacity="1"
     objecttolerance="10"
     gridtolerance="10"
     guidetolerance="10"
     inkscape:pageopacity="0"
     inkscape:pageshadow="2"
     inkscape:window-width="1920"
     inkscape:window-height="1017"
     id="namedview10"
     showgrid="false"
     inkscape:zoom="2.95"
     inkscape:cx="40"
     inkscape:cy="40"
     inkscape:window-x="0"
     inkscape:window-y="30"
     inkscape:window-maximized="1"
     inkscape:current-layer="svg8" />
  <path
     d="M0 0l115 115h15l12 27 108 108V0z"
     fill="#fff"
     id="path2"
     style="fill:#2d465a;fill-opacity:1" />
  <path
     class="octo-arm"
     d="M128 109c-15-9-9-19-9-19 3-7 2-11 2-11-1-7 3-2 3-2 4 5 2 11 2 11-3 10 5 15 9 16"
     style="-webkit-transform-origin:130px 106px;transform-origin:130px 106px;fill:#ffffff;fill-opacity:1"
     id="path4" />
  <path
     class="octo-body"
     d="M115 115s4 2 5 0l14-14c3-2 6-3 8-3-8-11-15-24 2-41 5-5 10-7 16-7 1-2 3-7 12-11 0 0 5 3 7 16 4 2 8 5 12 9s7 8 9 12c14 3 17 7 17 7-4 8-9 11-11 11 0 6-2 11-7 16-16 16-30 10-41 2 0 3-1 7-5 11l-12 11c-1 1 1 5 1 5z"
     id="path6"
     style="fill:#ffffff;fill-opacity:1" />
</svg>
