<?xml version="1.0" encoding="UTF-8" standalone="no"?>
<svg
   xmlns:dc="http://purl.org/dc/elements/1.1/"
   xmlns:cc="http://creativecommons.org/ns#"
   xmlns:rdf="http://www.w3.org/1999/02/22-rdf-syntax-ns#"
   xmlns:svg="http://www.w3.org/2000/svg"
   xmlns="http://www.w3.org/2000/svg"
   xmlns:sodipodi="http://sodipodi.sourceforge.net/DTD/sodipodi-0.dtd"
   xmlns:inkscape="http://www.inkscape.org/namespaces/inkscape"
   height="325.19827pt"
   viewBox="0 0 845.76062 325.19827"
   width="845.76062pt"
   version="1.1"
   id="svg26"
   sodipodi:docname="logo-landing-page.svg"
   inkscape:version="0.92.3 (2405546, 2018-03-11)">
  <metadata
     id="metadata32">
    <rdf:RDF>
      <cc:Work
         rdf:about="">
        <dc:format>image/svg+xml</dc:format>
        <dc:type
           rdf:resource="http://purl.org/dc/dcmitype/StillImage" />
        <dc:title></dc:title>
      </cc:Work>
    </rdf:RDF>
  </metadata>
  <defs
     id="defs30" />
  <sodipodi:namedview
     pagecolor="#ffffff"
     bordercolor="#666666"
     borderopacity="1"
     objecttolerance="10"
     gridtolerance="10"
     guidetolerance="10"
     inkscape:pageopacity="0"
     inkscape:pageshadow="2"
     inkscape:window-width="1920"
     inkscape:window-height="1017"
     id="namedview28"
     showgrid="false"
     showguides="true"
     inkscape:guide-bbox="true"
     inkscape:zoom="0.6157757"
     inkscape:cx="633.72621"
     inkscape:cy="88.239601"
     inkscape:window-x="0"
     inkscape:window-y="30"
     inkscape:window-maximized="1"
     inkscape:current-layer="svg26"
     fit-margin-top="0"
     fit-margin-left="0"
     fit-margin-right="0"
     fit-margin-bottom="0">
    <sodipodi:guide
       position="413.50285,83.58724"
       orientation="0,1"
       id="guide959"
       inkscape:locked="false" />
    <sodipodi:guide
       position="482.92749,305.25887"
       orientation="0,1"
       id="guide961"
       inkscape:locked="false" />
    <sodipodi:guide
       position="221.67163,-34.55643"
       orientation="1,0"
       id="guide971"
       inkscape:locked="false" />
  </sodipodi:namedview>
  <path
     d="m 206.20081,123.25801 c -7.21053,0.0271 -13.49553,4.91415 -15.29816,11.8962 h -40.61437 c -0.51117,-2.48225 -1.49671,-4.84251 -2.90241,-6.95107 l 34.9509,-34.950898 c 2.41641,1.45605 5.18135,2.23248 8.00244,2.24797 8.7595,0 15.8616,-7.1021 15.8616,-15.8616 0,-8.75951 -7.1021,-15.861604 -15.8616,-15.861604 -8.75951,0 -15.8616,7.102094 -15.8616,15.861604 0.0135,2.82302 0.78998,5.58989 2.24796,8.00631 l -34.9509,34.950898 c -8.27738,-5.48922 -19.33907,-4.00606 -25.87965,3.46779 -6.54059,7.47578 -6.54059,18.63621 0,26.112 6.54058,7.47385 17.60227,8.95701 25.87965,3.46779 l 34.9509,34.9509 c -1.45798,2.41641 -2.23441,5.18329 -2.24796,8.00631 0,8.75951 7.10209,15.8616 15.8616,15.8616 8.7595,0 15.8616,-7.10209 15.8616,-15.8616 0,-8.75951 -7.1021,-15.8616 -15.8616,-15.8616 -2.82303,0.0135 -5.5899,0.78998 -8.00631,2.24797 l -34.9509,-34.9509 c 1.40764,-2.10856 2.39511,-4.46883 2.90628,-6.95107 h 40.61437 c 2.0737,7.96178 9.89994,13.0076 18.00694,11.61157 8.10894,-1.39602 13.79564,-8.76725 13.09086,-16.96525 -0.70672,-8.19606 -7.5726,-14.48494 -15.79964,-14.47332 z m -15.8616,-51.550198 c 4.37975,0 7.9308,3.55104 7.9308,7.9308 0,4.37975 -3.55105,7.9308 -7.9308,7.9308 -4.37976,0 -7.9308,-3.55105 -7.9308,-7.9308 0,-4.37976 3.55104,-7.9308 7.9308,-7.9308 z m -59.481,79.307998 c -6.56964,0 -11.89621,-5.32657 -11.89621,-11.8962 0,-6.56963 5.32657,-11.8962 11.89621,-11.8962 6.56963,0 11.8962,5.32657 11.8962,11.8962 0,6.56963 -5.32657,11.8962 -11.8962,11.8962 z m 67.4118,47.5848 c 0,4.37976 -3.55105,7.9308 -7.9308,7.9308 -4.37976,0 -7.9308,-3.55104 -7.9308,-7.9308 0,-4.37975 3.55104,-7.9308 7.9308,-7.9308 4.37975,0 7.9308,3.55105 7.9308,7.9308 z m 7.9308,-51.5502 c -4.37976,0 -7.9308,-3.55105 -7.9308,-7.9308 0,-4.37976 3.55104,-7.9308 7.9308,-7.9308 4.37975,0 7.9308,3.55104 7.9308,7.9308 0,4.37975 -3.55105,7.9308 -7.9308,7.9308 z m 0,0"
     id="path20"
     style="fill:#2d465f;fill-opacity:0.94117647;stroke-width:0.49567503"
     inkscape:connector-curvature="0"
     inkscape:export-filename="/home/schartz/path20.png"
     inkscape:export-xdpi="90"
     inkscape:export-ydpi="90" />
  <g
     id="g879"
     style="fill:#2d465f;fill-opacity:0.94117647"
     transform="matrix(0.49567502,0,0,0.49567502,-15.861601,20.157598)"
     inkscape:export-filename="/home/schartz/path20.png"
     inkscape:export-xdpi="90"
     inkscape:export-ydpi="90">
    <g
       id="g858"
       style="fill:#2d465f;fill-opacity:0.94117647">
      <path
         d="m 344,448 c 13.25391,0 24,-10.74609 24,-24 v -88 h -16 v 88 c 0,4.41797 -3.58203,8 -8,8 H 56 c -4.417969,0 -8,-3.58203 -8,-8 V 24 c 0,-4.417969 3.582031,-8 8,-8 h 224 v 56 c 0,13.253906 10.74609,24 24,24 h 48 v 48 h 16 V 88.246094 c 0,-1.972656 -0.73047,-3.875 -2.04688,-5.34375 l -72,-80.246094 C 292.43359,0.964844 290.26953,0 288,0 H 56 C 42.746094,0 32,10.746094 32,24 v 24 0 376 c 0,13.25391 10.746094,24 24,24 z M 296,72 V 28.921875 L 341.84766,80 H 304 c -4.41797,0 -8,-3.582031 -8,-8 z"
         id="path2"
         inkscape:connector-curvature="0"
         sodipodi:nodetypes="csccsssssscsscccsccsssccssccsccss"
         style="fill:#2d465f;fill-opacity:0.94117647" />
    </g>
    <g
       id="g867"
       style="fill:#2d465f;fill-opacity:0.94117647">
      <path
         d="m 80.5,48 h 64 v 16 h -64 z m 0,0"
         id="path6"
         inkscape:connector-curvature="0"
         style="fill:#2d465f;fill-opacity:0.94117647" />
      <path
         d="m 80,80 h 96 V 96 H 80 Z m 0,0"
         id="path8"
         style="fill:#2d465f;fill-opacity:0.94117647"
         inkscape:connector-curvature="0" />
      <path
         d="M 192,212.5 H 80 v -16 h 112 z m 0,0"
         id="path12"
         inkscape:connector-curvature="0"
         style="fill:#2d465f;fill-opacity:0.94117647" />
      <path
         d="m 80,234 h 160 v 16 H 80 Z m 0,0"
         id="path16"
         inkscape:connector-curvature="0"
         style="fill:#2d465f;fill-opacity:0.94117647" />
      <path
         d="m 80,276 h 160 v 16 H 80 Z m 0,0"
         id="path18"
         inkscape:connector-curvature="0"
         style="fill:#2d465f;fill-opacity:0.94117647" />
      <path
         d="m 208,352 h 64 v 16 h -64 z m 0,0"
         id="path22"
         style="fill:#2d465f;fill-opacity:0.94117647"
         inkscape:connector-curvature="0" />
      <path
         d="m 208,384 h 64 v 16 h -64 z m 0,0"
         id="path24"
         style="fill:#2d465f;fill-opacity:0.94117647"
         inkscape:connector-curvature="0" />
    </g>
  </g>
  <text
     xml:space="preserve"
     style="font-style:normal;font-variant:normal;font-weight:normal;font-stretch:normal;font-size:336.87713623px;line-height:1.25;font-family:'Open Sans';-inkscape-font-specification:'Open Sans';letter-spacing:0px;word-spacing:0px;fill:#2d465f;fill-opacity:0.94117647;stroke:none;stroke-width:8.42192745"
     x="265.27264"
     y="244.26883"
     id="text957"><tspan
       sodipodi:role="line"
       id="tspan955"
       x="265.27264"
       y="244.26883"
       style="font-style:normal;font-variant:normal;font-weight:300;font-stretch:normal;font-family:'Open Sans';-inkscape-font-specification:'Open Sans Light';fill:#2d465f;fill-opacity:0.94117647;stroke-width:8.42192745">Typi</tspan></text>
  <text
     xml:space="preserve"
     style="font-style:normal;font-weight:normal;font-size:30.00000191px;line-height:1.25;font-family:sans-serif;letter-spacing:0px;word-spacing:0px;fill:#000000;fill-opacity:1;stroke:none;stroke-width:0.75000006"
     x="721.04175"
     y="-107.94808"
     id="text965"><tspan
       sodipodi:role="line"
       id="tspan963"
       x="721.04175"
       y="-80.925446"
       style="stroke-width:0.75000006" /></text>
</svg>
