<?xml version="1.0" encoding="UTF-8" standalone="no"?>
<svg
   xmlns:dc="http://purl.org/dc/elements/1.1/"
   xmlns:cc="http://creativecommons.org/ns#"
   xmlns:rdf="http://www.w3.org/1999/02/22-rdf-syntax-ns#"
   xmlns:svg="http://www.w3.org/2000/svg"
   xmlns="http://www.w3.org/2000/svg"
   id="svg26"
   version="1.1"
   width="1002.2083pt"
   viewBox="0 0 1002.2083 429.75958"
   height="429.75958pt">
  <metadata
     id="metadata32">
    <rdf:RDF>
      <cc:Work
         rdf:about="">
        <dc:format>image/svg+xml</dc:format>
        <dc:type
           rdf:resource="http://purl.org/dc/dcmitype/StillImage" />
        <dc:title></dc:title>
      </cc:Work>
    </rdf:RDF>
  </metadata>
  <defs
     id="defs30">
    <filter
       id="filter1795"
       style="color-interpolation-filters:sRGB">
      <feFlood
         id="feFlood1785"
         result="flood"
         flood-color="rgb(0,0,0)"
         flood-opacity="0.498039" />
      <feComposite
         id="feComposite1787"
         result="composite1"
         operator="in"
         in2="SourceGraphic"
         in="flood" />
      <feGaussianBlur
         id="feGaussianBlur1789"
         result="blur"
         stdDeviation="13.2"
         in="composite1" />
      <feOffset
         id="feOffset1791"
         result="offset"
         dy="0"
         dx="0" />
      <feComposite
         id="feComposite1793"
         result="composite2"
         operator="over"
         in2="offset"
         in="SourceGraphic" />
    </filter>
    <filter
       id="filter1807"
       style="color-interpolation-filters:sRGB">
      <feFlood
         id="feFlood1797"
         result="flood"
         flood-color="rgb(0,0,0)"
         flood-opacity="0.498039" />
      <feComposite
         id="feComposite1799"
         result="composite1"
         operator="in"
         in2="SourceGraphic"
         in="flood" />
      <feGaussianBlur
         id="feGaussianBlur1801"
         result="blur"
         stdDeviation="13.2"
         in="composite1" />
      <feOffset
         id="feOffset1803"
         result="offset"
         dy="0"
         dx="0" />
      <feComposite
         id="feComposite1805"
         result="composite2"
         operator="over"
         in2="offset"
         in="SourceGraphic" />
    </filter>
    <filter
       id="filter1819"
       style="color-interpolation-filters:sRGB">
      <feFlood
         id="feFlood1809"
         result="flood"
         flood-color="rgb(0,0,0)"
         flood-opacity="0.498039" />
      <feComposite
         id="feComposite1811"
         result="composite1"
         operator="in"
         in2="SourceGraphic"
         in="flood" />
      <feGaussianBlur
         id="feGaussianBlur1813"
         result="blur"
         stdDeviation="13.2"
         in="composite1" />
      <feOffset
         id="feOffset1815"
         result="offset"
         dy="0"
         dx="0" />
      <feComposite
         id="feComposite1817"
         result="composite2"
         operator="over"
         in2="offset"
         in="SourceGraphic" />
    </filter>
  </defs>
  <rect
     y="1.125"
     x="1.125"
     height="427.50958"
     width="999.95831"
     id="rect1099"
     style="fill:#ffffff;fill-opacity:1;stroke:none;stroke-width:2.25;stroke-miterlimit:4;stroke-dasharray:none;stroke-opacity:1" />
  <path
     style="fill:#2d465f;fill-opacity:0.94117647;stroke-width:0.49567503;filter:url(#filter1819)"
     id="path20"
     d="m 282.84032,174.32134 c -7.21053,0.0271 -13.49553,4.91415 -15.29816,11.8962 h -40.61437 c -0.51117,-2.48225 -1.49671,-4.84251 -2.90241,-6.95107 l 34.9509,-34.9509 c 2.41641,1.45605 5.18135,2.23248 8.00244,2.24797 8.7595,0 15.8616,-7.1021 15.8616,-15.8616 0,-8.75951 -7.1021,-15.8616 -15.8616,-15.8616 -8.75951,0 -15.8616,7.10209 -15.8616,15.8616 0.0135,2.82302 0.78998,5.58989 2.24796,8.00631 l -34.9509,34.9509 c -8.27738,-5.48922 -19.33907,-4.00606 -25.87965,3.46779 -6.54059,7.47578 -6.54059,18.63621 0,26.112 6.54058,7.47385 17.60227,8.95701 25.87965,3.46779 l 34.9509,34.9509 c -1.45798,2.41641 -2.23441,5.18329 -2.24796,8.00631 0,8.75951 7.10209,15.8616 15.8616,15.8616 8.7595,0 15.8616,-7.10209 15.8616,-15.8616 0,-8.75951 -7.1021,-15.8616 -15.8616,-15.8616 -2.82303,0.0135 -5.5899,0.78998 -8.00631,2.24797 l -34.9509,-34.9509 c 1.40764,-2.10856 2.39511,-4.46883 2.90628,-6.95107 h 40.61437 c 2.0737,7.96178 9.89994,13.0076 18.00694,11.61157 8.10894,-1.39602 13.79564,-8.76725 13.09086,-16.96525 -0.70672,-8.19606 -7.5726,-14.48494 -15.79964,-14.47332 z m -15.8616,-51.5502 c 4.37975,0 7.9308,3.55104 7.9308,7.9308 0,4.37975 -3.55105,7.9308 -7.9308,7.9308 -4.37976,0 -7.9308,-3.55105 -7.9308,-7.9308 0,-4.37976 3.55104,-7.9308 7.9308,-7.9308 z m -59.481,79.308 c -6.56964,0 -11.89621,-5.32657 -11.89621,-11.8962 0,-6.56963 5.32657,-11.8962 11.89621,-11.8962 6.56963,0 11.8962,5.32657 11.8962,11.8962 0,6.56963 -5.32657,11.8962 -11.8962,11.8962 z m 67.4118,47.5848 c 0,4.37976 -3.55105,7.9308 -7.9308,7.9308 -4.37976,0 -7.9308,-3.55104 -7.9308,-7.9308 0,-4.37975 3.55104,-7.9308 7.9308,-7.9308 4.37975,0 7.9308,3.55105 7.9308,7.9308 z m 7.9308,-51.5502 c -4.37976,0 -7.9308,-3.55105 -7.9308,-7.9308 0,-4.37976 3.55104,-7.9308 7.9308,-7.9308 4.37975,0 7.9308,3.55104 7.9308,7.9308 0,4.37975 -3.55105,7.9308 -7.9308,7.9308 z m 0,0" />
  <g
     transform="matrix(0.49567502,0,0,0.49567502,60.77791,71.220926)"
     style="fill:#2d465f;fill-opacity:0.94117647;filter:url(#filter1807)"
     id="g879">
    <g
       style="fill:#2d465f;fill-opacity:0.94117647"
       id="g858">
      <path
         style="fill:#2d465f;fill-opacity:0.94117647"
         id="path2"
         d="m 344,448 c 13.25391,0 24,-10.74609 24,-24 v -88 h -16 v 88 c 0,4.41797 -3.58203,8 -8,8 H 56 c -4.417969,0 -8,-3.58203 -8,-8 V 24 c 0,-4.417969 3.582031,-8 8,-8 h 224 v 56 c 0,13.253906 10.74609,24 24,24 h 48 v 48 h 16 V 88.246094 c 0,-1.972656 -0.73047,-3.875 -2.04688,-5.34375 l -72,-80.246094 C 292.43359,0.964844 290.26953,0 288,0 H 56 C 42.746094,0 32,10.746094 32,24 v 24 0 376 c 0,13.25391 10.746094,24 24,24 z M 296,72 V 28.921875 L 341.84766,80 H 304 c -4.41797,0 -8,-3.582031 -8,-8 z" />
    </g>
    <g
       style="fill:#2d465f;fill-opacity:0.94117647"
       id="g867">
      <path
         style="fill:#2d465f;fill-opacity:0.94117647"
         id="path6"
         d="m 80.5,48 h 64 v 16 h -64 z m 0,0" />
      <path
         style="fill:#2d465f;fill-opacity:0.94117647"
         id="path8"
         d="m 80,80 h 96 V 96 H 80 Z m 0,0" />
      <path
         style="fill:#2d465f;fill-opacity:0.94117647"
         id="path12"
         d="M 192,212.5 H 80 v -16 h 112 z m 0,0" />
      <path
         style="fill:#2d465f;fill-opacity:0.94117647"
         id="path16"
         d="m 80,234 h 160 v 16 H 80 Z m 0,0" />
      <path
         style="fill:#2d465f;fill-opacity:0.94117647"
         id="path18"
         d="m 80,276 h 160 v 16 H 80 Z m 0,0" />
      <path
         style="fill:#2d465f;fill-opacity:0.94117647"
         id="path22"
         d="m 208,352 h 64 v 16 h -64 z m 0,0" />
      <path
         style="fill:#2d465f;fill-opacity:0.94117647"
         id="path24"
         d="m 208,384 h 64 v 16 h -64 z m 0,0" />
    </g>
  </g>
  <text
     id="text957"
     y="295.33215"
     x="341.91217"
     style="font-style:normal;font-variant:normal;font-weight:normal;font-stretch:normal;font-size:336.87713623px;line-height:1.25;font-family:'Open Sans';-inkscape-font-specification:'Open Sans';letter-spacing:0px;word-spacing:0px;fill:#2d465f;fill-opacity:0.94117647;stroke:none;stroke-width:8.42192745;filter:url(#filter1795)"
     xml:space="preserve"><tspan
       style="font-style:normal;font-variant:normal;font-weight:300;font-stretch:normal;font-family:'Open Sans';-inkscape-font-specification:'Open Sans Light';fill:#2d465f;fill-opacity:0.94117647;stroke-width:8.42192745"
       y="295.33215"
       x="341.91217"
       id="tspan955">Typi</tspan></text>
  <text
     id="text965"
     y="-56.884754"
     x="797.68127"
     style="font-style:normal;font-weight:normal;font-size:30.00000191px;line-height:1.25;font-family:sans-serif;letter-spacing:0px;word-spacing:0px;fill:#000000;fill-opacity:1;stroke:none;stroke-width:0.75000006"
     xml:space="preserve"><tspan
       style="stroke-width:0.75000006"
       y="-29.862118"
       x="797.68127"
       id="tspan963" /></text>
</svg>
